<?xml version="1.0" encoding="UTF-8" standalone="no"?>
<!-- Uploaded to: SVG Repo, www.svgrepo.com, Transformed by: SVG Repo Mixer Tools -->

<svg
   width="800px"
   height="800px"
   viewBox="0 -0.5 17 17"
   version="1.1"
   class="si-glyph si-glyph-button-arrow-up"
   fill="#000000"
   id="svg17"
   sodipodi:docname="button-RB.svg"
   inkscape:version="1.1.2 (b8e25be833, 2022-02-05)"
   xmlns:inkscape="http://www.inkscape.org/namespaces/inkscape"
   xmlns:sodipodi="http://sodipodi.sourceforge.net/DTD/sodipodi-0.dtd"
   xmlns="http://www.w3.org/2000/svg"
   xmlns:svg="http://www.w3.org/2000/svg">
  <defs
     id="defs21">
    <rect
       x="369.4328"
       y="321.63905"
       width="235.0936"
       height="135.63092"
       id="rect21594" />
    <rect
       x="268.53147"
       y="258.27506"
       width="277.0963"
       height="267.59407"
       id="rect3691" />
  </defs>
  <sodipodi:namedview
     id="namedview19"
     pagecolor="#ffffff"
     bordercolor="#666666"
     borderopacity="1.0"
     inkscape:pageshadow="2"
     inkscape:pageopacity="0.0"
     inkscape:pagecheckerboard="0"
     showgrid="false"
     inkscape:zoom="0.38707987"
     inkscape:cx="579.98366"
     inkscape:cy="1073.4219"
     inkscape:window-width="958"
     inkscape:window-height="1041"
     inkscape:window-x="-8"
     inkscape:window-y="0"
     inkscape:window-maximized="0"
     inkscape:current-layer="svg17" />
  <g
     id="SVGRepo_bgCarrier"
     stroke-width="0" />
  <g
     id="SVGRepo_tracerCarrier"
     stroke-linecap="round"
     stroke-linejoin="round" />
  <g
     id="SVGRepo_iconCarrier">
    <title
       id="title4">1187</title>
    <defs
       id="defs6" />
    <g
       stroke="none"
       stroke-width="1"
       fill="none"
       fill-rule="evenodd"
       id="g14">
      <g
         transform="translate(1.000000, 0.000000)"
         fill="#000000"
         id="g12">
        <path
           id="path8"
           style="stroke-width:47.0588"
           class="si-glyph-fill"
           transform="matrix(0.02125,0,0,0.02125,-1,-0.5)"
           d="M 422.77734,26.210938 C 216.28323,26.210937 48.234375,193.83566 48.234375,399.90625 c 0,205.97647 168.001795,373.59961 374.542965,373.59961 206.54118,0 374.54102,-167.62314 374.54102,-373.59961 0,-206.07059 -167.99984,-373.695312 -374.54102,-373.695312 z m -0.70703,87.529292 c 157.50588,0 285.83594,128.47153 285.83594,286.25977 0,157.83529 -128.33006,286.25977 -285.83594,286.25977 -157.6,0 -285.78711,-128.42448 -285.78711,-286.25977 0,-157.78824 128.18711,-286.25977 285.78711,-286.25977 z" />
      </g>
    </g>
  </g>
  <path
     id="path2179"
     style="fill:#000000;stroke-width:47.0588"
     d="M 550.49609 255.13672 C 548.13431 255.12619 545.7301 255.13949 543.28516 255.17773 C 457.22317 256.52409 321.32479 287.74717 253.72461 324.47852 C 227.6734 339.90853 211.82911 358.10445 196.00391 388.2793 C 183.85055 419.88269 184.417 460.83489 187.04297 498.99219 C 188.94097 510.46146 219.22957 511.97833 229.63867 511.22656 C 302.9507 511.49668 372.5445 511.49661 460.45508 513.18555 C 502.45863 507.29679 632.90895 520.89221 631.79883 489.625 C 631.32151 451.40899 627.27603 405.2442 626.29297 362.28125 C 623.62502 331.84356 627.76194 304.58738 618.65625 274.14844 C 611.69016 261.00235 585.92286 255.29468 550.49609 255.13672 z M 492.14844 320.74609 C 497.72068 320.71517 505.06967 320.76888 514.87891 320.83984 C 553.58066 321.11982 553.59214 321.12168 562.81445 325.67188 C 571.71452 330.06309 579.38205 339.64663 581.54688 349.08789 C 582.52946 353.37319 582.38523 361.83982 581.25586 366.17578 C 579.02136 374.75461 573.0582 382.14026 564.17188 387.33398 C 560.79605 389.30703 560.28528 389.81421 561.30469 390.18164 C 574.09813 394.79285 581.6067 400.69132 585.76562 409.40234 C 592.65482 423.83199 589.61907 441.46266 578.16992 453.51562 C 574.40524 457.47886 572.55568 458.83461 567.74609 461.16016 C 564.13429 462.90655 559.43102 464.5313 555.44141 465.4082 C 549.31242 466.75532 547.23562 466.83755 514.75195 467.01562 C 495.92508 467.11883 479.64965 466.97734 478.58398 466.70312 C 473.48085 465.38981 469.84084 462.05756 468.42773 457.40234 C 467.78419 455.28232 467.60352 441.30123 467.60352 393.65234 C 467.60352 326.59192 467.41887 329.76994 471.59766 325.14453 C 474.71437 321.6947 475.43171 320.83886 492.14844 320.74609 z M 329.38867 320.99414 L 366.20312 320.99609 C 398.61317 320.99809 403.58262 321.12818 407.73828 322.09766 C 421.78284 325.37415 432.41612 334.91062 436.69922 348.06836 C 438.0841 352.32274 438.41145 354.59763 438.4668 360.39062 C 438.58296 372.54649 435.75753 380.07865 428.26562 387.58789 C 424.61169 391.25029 422.44323 392.77459 417.54883 395.125 C 414.17421 396.74557 409.27016 398.66295 406.65039 399.38672 C 404.03062 400.11049 401.76323 400.82662 401.61133 400.97852 C 401.45943 401.13042 402.42051 401.92488 403.74609 402.74414 C 416.35608 410.53754 433.00535 433.47415 439.81055 452.42578 C 442.39953 459.63576 441.0252 464.28952 435.32031 467.63281 C 429.49845 471.04465 422.3154 470.33297 417.21094 465.83984 C 413.85536 462.88615 412.09668 460.24905 399.57422 439.38086 C 382.45498 410.8523 377.72821 406.20472 364.26172 404.66211 C 361.06675 404.29612 356.21579 403.99511 353.48047 403.99219 L 348.50586 403.98633 L 348.3125 431.59766 C 348.12326 458.58804 348.08843 459.26637 346.70508 461.85156 C 343.1357 468.52198 335.85522 471.38185 328.45117 469.02148 C 327.22464 468.63047 325.13396 467.2238 323.80469 465.89453 C 319.20991 461.29975 319.37891 463.99828 319.37891 395.25195 C 319.37891 329.46622 319.33287 330.43496 322.58398 325.86914 C 323.36685 324.7697 325.21944 323.22285 326.69922 322.43164 L 329.38867 320.99414 z M 496.99023 341.78711 L 496.99023 361.26172 L 496.99023 380.73633 L 515.55859 380.72461 C 529.935 380.71761 535.07286 380.49298 538.31641 379.72852 C 544.11782 378.3612 547.6292 376.12721 550.30078 372.10352 C 553.32962 367.54176 554.31859 362.69787 553.36133 357.10938 C 552.41243 351.56973 550.16113 348.30926 545.81641 346.18359 C 540.10759 343.39053 534.29766 342.64124 514.91406 342.19727 L 496.99023 341.78711 z M 348.44141 341.98438 L 348.44141 362.65039 L 348.44141 383.31836 L 365.83398 383.31836 C 375.39932 383.31836 385.47551 383.00541 388.22461 382.62305 C 398.25764 381.22758 404.02284 377.93357 406.98438 371.90234 C 408.59103 368.63032 408.82561 367.4268 408.79297 362.65039 C 408.76317 358.28856 408.44958 356.52908 407.26562 354.08594 C 405.37153 350.17742 400.34863 345.6411 396.39453 344.26758 C 392.52466 342.92331 378.69261 342.02504 361.52148 342.00195 L 348.44141 341.98438 z M 496.99023 401.95703 L 496.99023 423.63867 L 496.99023 445.32227 L 516.85156 445.31055 C 531.54501 445.30255 537.84044 445.06008 541.05469 444.37891 C 549.54777 442.57905 554.50572 439.29094 557.56055 433.43164 C 559.07801 430.5211 559.27661 429.39925 559.29492 423.64258 C 559.31392 417.6616 559.15893 416.83312 557.36328 413.30859 C 555.05575 408.77931 551.44441 406.04426 544.88281 403.86133 C 540.85886 402.52263 539.20623 402.41786 518.78906 402.19531 L 496.99023 401.95703 z "
     transform="matrix(0.02125,0,0,0.02125,0,-0.5)" />
  <text
     xml:space="preserve"
     transform="matrix(0.02125,0,0,0.02125,0,-0.5)"
     id="text21592"
     style="fill:black;fill-opacity:1;line-height:1.25;stroke:none;font-family:sans-serif;font-style:normal;font-weight:normal;font-size:40px;white-space:pre;shape-inside:url(#rect21594);letter-spacing:0px" />
</svg>
