<?xml version="1.0" encoding="UTF-8" standalone="no"?>
<!-- Uploaded to: SVG Repo, www.svgrepo.com, Transformed by: SVG Repo Mixer Tools -->

<svg
   width="800px"
   height="800px"
   viewBox="0 -0.5 17 17"
   version="1.1"
   class="si-glyph si-glyph-button-arrow-up"
   fill="#000000"
   id="svg17"
   sodipodi:docname="blank_circle.svg"
   inkscape:version="1.1.2 (b8e25be833, 2022-02-05)"
   xmlns:inkscape="http://www.inkscape.org/namespaces/inkscape"
   xmlns:sodipodi="http://sodipodi.sourceforge.net/DTD/sodipodi-0.dtd"
   xmlns="http://www.w3.org/2000/svg"
   xmlns:svg="http://www.w3.org/2000/svg">
  <defs
     id="defs21">
    <rect
       x="228.54165"
       y="239.42459"
       width="134.22287"
       height="166.87168"
       id="rect19132" />
    <rect
       x="232.1445"
       y="227.01423"
       width="294.99024"
       height="221.88397"
       id="rect12865" />
  </defs>
  <sodipodi:namedview
     id="namedview19"
     pagecolor="#ffffff"
     bordercolor="#666666"
     borderopacity="1.0"
     inkscape:pageshadow="2"
     inkscape:pageopacity="0.0"
     inkscape:pagecheckerboard="0"
     showgrid="false"
     inkscape:zoom="2.2052873"
     inkscape:cx="411.51101"
     inkscape:cy="291.57199"
     inkscape:window-width="1920"
     inkscape:window-height="1051"
     inkscape:window-x="-9"
     inkscape:window-y="-9"
     inkscape:window-maximized="1"
     inkscape:current-layer="svg17" />
  <g
     id="SVGRepo_bgCarrier"
     stroke-width="0"
     transform="matrix(-1,0,0,1,16.839249,0)" />
  <g
     id="SVGRepo_tracerCarrier"
     stroke-linecap="round"
     stroke-linejoin="round"
     transform="matrix(-1,0,0,1,16.839249,0)" />
  <path
     id="path1320"
     style="fill:#000000;stroke:none;stroke-width:0.0498347"
     d="m 3.6249444,0.97019287 10.6521436,0.003279 c 0.634742,0.0349632 0.618941,0.0175013 1.04374,0.51498053 0.26611,0.3116406 0.224022,0.7594127 0.223416,1.1394481 -0.0016,1.0180232 -0.17583,2.0684525 -0.388311,3.0503712 -0.566482,4.2407839 -3.67346,8.5180453 -7.3592234,9.0866573 -1.3714653,0.182124 -2.841994,0.238421 -4.2214039,0.07222 C 3.0852698,14.778086 2.6565294,14.757184 2.2915483,14.352712 1.1481275,13.846059 0.97944096,1.7172303 1.8189849,1.3258398 2.5121769,0.88187007 3.0609654,1.0152937 3.6249444,0.97019287 Z M 4.9717462,3.0244702 C 4.5943131,3.0546533 4.2270574,2.9653359 3.7631525,3.2624536 3.2013014,3.5243847 3.3141557,11.641406 4.0793708,11.980474 c 0.244256,0.270685 0.5311828,0.284657 0.8591307,0.324187 0.923145,0.111231 1.9073007,0.07357 2.8251295,-0.04831 2.466631,-0.380533 4.545912,-3.2430002 4.925019,-6.0810692 0.142199,-0.6571316 0.258818,-1.3601175 0.259898,-2.0414112 4.06e-4,-0.2543319 0.02855,-0.5539914 -0.149539,-0.7625512 C 12.51472,3.0383894 12.525288,3.0500686 12.100499,3.02667 Z" />
  <text
     xml:space="preserve"
     transform="matrix(-0.02125,0,0,0.02125,16.839249,-0.5)"
     id="text12863"
     style="font-style:normal;font-weight:normal;font-size:40px;line-height:1.25;font-family:sans-serif;white-space:pre;shape-inside:url(#rect12865);fill:#000000;fill-opacity:1;stroke:none" />
  <text
     xml:space="preserve"
     transform="matrix(0.19542553,0,0,0.19542553,-41.293733,-44.179602)"
     id="text19130"
     style="font-style:normal;font-weight:normal;font-size:40px;line-height:1.25;font-family:sans-serif;white-space:pre;shape-inside:url(#rect19132);fill:#008000;fill-opacity:1;stroke:none;stroke-width:0.108737"><tspan
       x="228.54102"
       y="275.91704"
       id="tspan22431"><tspan
         style="font-family:'Arial Rounded MT Bold';-inkscape-font-specification:'Arial Rounded MT Bold, '"
         id="tspan22429">LT</tspan></tspan></text>
  <path
     style="fill:#000000;stroke:none;stroke-width:1"
     d="m 211.3543,481.28577 c -13.60399,-1.76963 -20.91073,-7.86246 -23.70237,-19.76455 -0.79,-3.36815 -0.8282,-8.61304 -0.8282,-113.72073 0,-104.33417 0.0431,-110.35774 0.81041,-113.35139 3.7139,-14.48915 15.627,-22.2031 30.21818,-19.56684 5.377,0.97149 9.08975,2.91823 13.00683,6.81996 3.61483,3.60068 5.57726,7.02885 7.1226,12.44254 l 0.98938,3.466 0.12026,100.31378 0.12026,100.31378 57.46861,0.1531 c 44.98409,0.11984 57.96115,0.27993 59.73589,0.73692 1.247,0.32109 3.7929,1.30836 5.65755,2.19391 15.7522,7.48097 16.30546,29.53241 0.93562,37.29107 -6.18257,3.12096 -0.87502,2.91784 -78.4659,3.00286 -39.28522,0.043 -71.43386,-0.10208 -73.18912,-0.33041 z"
     id="path22263"
     transform="matrix(0.02125,0,0,0.02125,0,-0.5)" />
  <path
     style="fill:#000000;stroke:none;stroke-width:1"
     d="m 443.93309,485.61247 c -4.95933,-1.10407 -8.62975,-3.11973 -12.28515,-6.74657 -3.65609,-3.62754 -5.46136,-6.9379 -7.08134,-12.9852 l -1.02048,-3.80939 -0.13147,-99.85692 -0.13148,-99.85692 -33.20678,-0.15061 c -36.40139,-0.1651 -35.00239,-0.0646 -41.14226,-2.95495 -9.55802,-4.49942 -13.53019,-18.0162 -8.38139,-28.5208 2.73171,-5.57324 7.71562,-9.15858 15.1636,-10.90841 3.21406,-0.75511 8.89507,-0.80362 94.11167,-0.80362 85.2166,0 90.89761,0.0485 94.11167,0.80362 4.96578,1.16667 8.69656,3.09212 11.58184,5.97741 9.81311,9.81311 7.1282,27.72856 -5.00658,33.40711 -6.33893,2.96634 -4.48031,2.83089 -41.17087,3.00056 l -33.44236,0.15465 -4.5e-4,98.7208 c -4.6e-4,105.70957 0.0716,102.15307 -2.20706,108.63624 -3.48654,9.91983 -11.58817,15.85322 -22.37979,16.39029 -2.85469,0.14207 -5.22726,-0.0178 -7.38115,-0.49729 z"
     id="path22339"
     transform="matrix(0.02125,0,0,0.02125,0,-0.5)" />
</svg>
