<?xml version="1.0" encoding="UTF-8" standalone="no"?>
<!-- Uploaded to: SVG Repo, www.svgrepo.com, Transformed by: SVG Repo Mixer Tools -->

<svg
   width="800px"
   height="800px"
   viewBox="0 -0.5 17 17"
   version="1.1"
   class="si-glyph si-glyph-button-arrow-up"
   fill="#000000"
   id="svg17"
   sodipodi:docname="button-LB.svg"
   inkscape:version="1.1.2 (b8e25be833, 2022-02-05)"
   xmlns:inkscape="http://www.inkscape.org/namespaces/inkscape"
   xmlns:sodipodi="http://sodipodi.sourceforge.net/DTD/sodipodi-0.dtd"
   xmlns="http://www.w3.org/2000/svg"
   xmlns:svg="http://www.w3.org/2000/svg">
  <defs
     id="defs21">
    <rect
       x="410.76794"
       y="152.42332"
       width="60.710985"
       height="204.09225"
       id="rect19022" />
    <rect
       x="437.89412"
       y="259.63634"
       width="86.545446"
       height="125.29714"
       id="rect17738" />
    <rect
       x="236.38532"
       y="313.88871"
       width="231.21843"
       height="174.38262"
       id="rect5246" />
    <rect
       x="268.53147"
       y="258.27506"
       width="277.0963"
       height="267.59407"
       id="rect3691" />
  </defs>
  <sodipodi:namedview
     id="namedview19"
     pagecolor="#ffffff"
     bordercolor="#666666"
     borderopacity="1.0"
     inkscape:pageshadow="2"
     inkscape:pageopacity="0.0"
     inkscape:pagecheckerboard="0"
     showgrid="false"
     inkscape:zoom="1.5483195"
     inkscape:cx="316.79509"
     inkscape:cy="416.25776"
     inkscape:window-width="1920"
     inkscape:window-height="1051"
     inkscape:window-x="-9"
     inkscape:window-y="-9"
     inkscape:window-maximized="1"
     inkscape:current-layer="svg17" />
  <g
     id="SVGRepo_bgCarrier"
     stroke-width="0" />
  <g
     id="SVGRepo_tracerCarrier"
     stroke-linecap="round"
     stroke-linejoin="round" />
  <g
     id="SVGRepo_iconCarrier">
    <title
       id="title4">1187</title>
    <defs
       id="defs6" />
    <g
       stroke="none"
       stroke-width="1"
       fill="none"
       fill-rule="evenodd"
       id="g14">
      <g
         transform="translate(1.000000, 0.000000)"
         fill="#000000"
         id="g12">
        <path
           id="path8"
           style="stroke-width:47.0588"
           class="si-glyph-fill"
           transform="matrix(0.02125,0,0,0.02125,-1,-0.5)"
           d="M 422.77734,26.210938 C 216.28323,26.210937 48.234375,193.83566 48.234375,399.90625 c 0,205.97647 168.001795,373.59961 374.542965,373.59961 206.54118,0 374.54102,-167.62314 374.54102,-373.59961 0,-206.07059 -167.99984,-373.695312 -374.54102,-373.695312 z m -0.70703,87.529292 c 157.50588,0 285.83594,128.47153 285.83594,286.25977 0,157.83529 -128.33006,286.25977 -285.83594,286.25977 -157.6,0 -285.78711,-128.42448 -285.78711,-286.25977 0,-157.78824 128.18711,-286.25977 285.78711,-286.25977 z" />
      </g>
    </g>
  </g>
  <path
     id="path2179"
     style="fill:#000000;stroke-width:47.0588"
     d="M 268.23047 255.13086 C 232.0719 255.14134 205.70741 260.82707 198.64844 274.14844 C 189.54274 304.58738 193.67967 331.84356 191.01172 362.28125 C 190.02866 405.2442 185.98318 451.40899 185.50586 489.625 C 184.39574 520.89221 314.84606 507.29679 356.84961 513.18555 C 444.76019 511.49661 514.35402 511.49668 587.66602 511.22656 C 598.0751 511.97809 628.36374 510.46127 630.26172 498.99219 C 632.8876 460.83489 633.45424 419.88269 621.30078 388.2793 C 605.47556 358.10445 589.63128 339.90853 563.58008 324.47852 C 494.44351 286.91236 353.86919 255.10603 268.23047 255.13086 z M 256.60742 307.26953 C 263.85871 307.26953 269.45739 311.83715 271.44922 319.37891 C 271.79313 320.68106 271.89509 332.31949 271.97852 379.51562 L 272.08203 438.03906 L 306.06445 438.12695 L 340.04688 438.2168 L 341.98438 438.95117 C 347.14821 440.90556 350.28831 444.76542 350.75195 449.73047 C 351.22453 454.79114 348.71897 459.28524 344.12891 461.61133 C 340.88265 463.25643 341.46346 463.23538 297.25781 463.18945 C 274.61229 463.16585 255.64806 463.08736 255.11523 463.01367 C 253.16993 462.74465 250.28221 461.88691 248.8418 461.15039 C 245.24175 459.30958 242.99608 456.08309 241.81641 451.05469 C 241.25899 448.67868 241.22852 445.31805 241.22852 385.25586 C 241.22852 325.19367 241.259 321.83498 241.81641 319.45898 C 243.68165 311.50833 248.82524 307.26953 256.60742 307.26953 z M 417.87305 310.01367 C 448.02877 310.01367 451.17812 310.06308 455.15625 310.60547 C 466.64634 312.17217 474.25087 315.63357 480.82031 322.28516 C 488.99444 330.5615 492.74261 341.56339 491.32812 353.13281 C 489.88977 364.89761 483.25853 374.09009 471.73047 380.30469 C 470.05567 381.20755 468.8068 382.04614 468.95312 382.16797 C 469.09945 382.2898 470.52649 382.86905 472.125 383.45508 C 483.83872 387.7495 492.59803 395.54657 496.19922 404.88477 C 498.2053 410.08672 498.58247 412.38766 498.59375 419.48633 C 498.60505 426.60275 498.24824 429.02866 496.43164 434.17969 C 493.19622 443.35384 486.83355 451.08749 478.64258 455.80078 C 472.64283 459.2532 465.74923 461.25282 455.49414 462.51562 C 449.43631 463.26159 386.98425 463.44499 383.64258 462.72656 C 378.59642 461.64167 375.4711 459.44916 373.625 455.69727 C 371.41585 451.20755 371.54297 455.43208 371.54297 386.54883 C 371.54297 318.29894 371.44157 321.99649 373.44336 317.71875 C 375.11459 314.14743 378.10004 311.88106 382.83398 310.58789 C 384.78066 310.05611 387.32506 310.01367 417.87305 310.01367 z M 402.21094 332.7793 L 402.21094 352.80273 L 402.21094 372.82422 L 420.06055 372.82422 C 430.52617 372.82422 439.04407 372.6844 440.64844 372.48633 C 447.84728 371.59762 452.39828 369.814 455.46094 366.68359 C 459.15075 362.91215 460.98332 358.69698 461.22656 353.42578 C 461.50748 347.33826 460.26941 343.12447 457.25 339.89648 C 455.35554 337.87114 453.723 336.91582 450.06836 335.69141 C 443.40369 333.45854 435.29532 332.78791 414.88477 332.7832 L 402.21094 332.7793 z M 402.21094 395.06055 L 402.21094 417.71484 L 402.21094 440.37109 L 422.47461 440.23242 C 439.20686 440.11795 443.27347 440.00229 445.80664 439.57031 C 458.10324 437.47336 464.51475 432.60328 466.8125 423.61914 C 467.59968 420.54131 467.66706 414.34322 466.94531 411.28125 C 465.28762 404.24863 459.99856 399.24819 451.89062 397.04688 C 445.65522 395.35397 445.69271 395.3553 423.28125 395.20312 L 402.21094 395.06055 z "
     transform="matrix(0.02125,0,0,0.02125,0,-0.5)" />
  <text
     xml:space="preserve"
     transform="matrix(0.02125,0,0,0.02125,0,-0.5)"
     id="text17736"
     style="fill:black;fill-opacity:1;line-height:1.25;stroke:none;font-family:sans-serif;font-style:normal;font-weight:normal;font-size:40px;white-space:pre;shape-inside:url(#rect17738)" />
  <text
     xml:space="preserve"
     transform="matrix(0.02125,0,0,0.02125,0,-0.5)"
     id="text19020"
     style="fill:black;fill-opacity:1;line-height:1.25;stroke:none;font-family:sans-serif;font-style:normal;font-weight:normal;font-size:40px;white-space:pre;shape-inside:url(#rect19022)" />
</svg>
