<?xml version="1.0" encoding="UTF-8" standalone="no"?>
<!-- Uploaded to: SVG Repo, www.svgrepo.com, Transformed by: SVG Repo Mixer Tools -->

<svg
   width="800px"
   height="800px"
   viewBox="0 -0.5 17 17"
   version="1.1"
   class="si-glyph si-glyph-button-arrow-up"
   fill="#000000"
   id="svg17"
   sodipodi:docname="button-arrow-up.svg"
   inkscape:version="1.1.2 (b8e25be833, 2022-02-05)"
   xmlns:inkscape="http://www.inkscape.org/namespaces/inkscape"
   xmlns:sodipodi="http://sodipodi.sourceforge.net/DTD/sodipodi-0.dtd"
   xmlns="http://www.w3.org/2000/svg"
   xmlns:svg="http://www.w3.org/2000/svg">
  <defs
     id="defs21" />
  <sodipodi:namedview
     id="namedview19"
     pagecolor="#ffffff"
     bordercolor="#666666"
     borderopacity="1.0"
     inkscape:pageshadow="2"
     inkscape:pageopacity="0.0"
     inkscape:pagecheckerboard="0"
     showgrid="false"
     inkscape:zoom="1.0725"
     inkscape:cx="400"
     inkscape:cy="400.4662"
     inkscape:window-width="1920"
     inkscape:window-height="1051"
     inkscape:window-x="-9"
     inkscape:window-y="-9"
     inkscape:window-maximized="1"
     inkscape:current-layer="svg17" />
  <g
     id="SVGRepo_bgCarrier"
     stroke-width="0" />
  <g
     id="SVGRepo_tracerCarrier"
     stroke-linecap="round"
     stroke-linejoin="round" />
  <g
     id="SVGRepo_iconCarrier"
     transform="rotate(90,8.984,7.997)">
    <title
       id="title4">1187</title>
    <defs
       id="defs6" />
    <g
       stroke="none"
       stroke-width="1"
       fill="none"
       fill-rule="evenodd"
       id="g14">
      <g
         transform="translate(1)"
         fill="#000000"
         id="g12">
        <path
           d="m 7.984,0.057 c 4.389,0 7.959,3.562 7.959,7.941 0,4.377 -3.57,7.939 -7.959,7.939 -4.389,0 -7.959,-3.562 -7.959,-7.939 0,-4.379 3.571,-7.941 7.959,-7.941 z M 7.969,14.083 c 3.347,0 6.074,-2.729 6.074,-6.083 0,-3.353 -2.727,-6.083 -6.074,-6.083 -3.349,0 -6.073,2.73 -6.073,6.083 0,3.354 2.724,6.083 6.073,6.083 z"
           class="si-glyph-fill"
           id="path8" />
        <path
           d="M 10.975,7.906 7.973,4.002 5.022,7.907 h 2.003 v 3.264 c 0,0.344 0.324,0.79 0.955,0.79 0.63,0 0.975,-0.483 0.975,-0.826 V 7.906 h 2.02 z"
           class="si-glyph-fill"
           id="path10" />
      </g>
    </g>
  </g>
</svg>
