<?xml version="1.0" encoding="UTF-8" standalone="no"?>
<!-- Uploaded to: SVG Repo, www.svgrepo.com, Transformed by: SVG Repo Mixer Tools -->

<svg
   width="800px"
   height="800px"
   viewBox="0 -0.5 17 17"
   version="1.1"
   class="si-glyph si-glyph-button-arrow-up"
   fill="#000000"
   id="svg17"
   sodipodi:docname="blank_circle.svg"
   inkscape:version="1.1.2 (b8e25be833, 2022-02-05)"
   xmlns:inkscape="http://www.inkscape.org/namespaces/inkscape"
   xmlns:sodipodi="http://sodipodi.sourceforge.net/DTD/sodipodi-0.dtd"
   xmlns="http://www.w3.org/2000/svg"
   xmlns:svg="http://www.w3.org/2000/svg">
  <defs
     id="defs21">
    <rect
       x="232.1445"
       y="227.01423"
       width="294.99024"
       height="221.88397"
       id="rect12865" />
  </defs>
  <sodipodi:namedview
     id="namedview19"
     pagecolor="#ffffff"
     bordercolor="#666666"
     borderopacity="1.0"
     inkscape:pageshadow="2"
     inkscape:pageopacity="0.0"
     inkscape:pagecheckerboard="0"
     showgrid="false"
     inkscape:zoom="1.5593736"
     inkscape:cx="471.66375"
     inkscape:cy="337.31493"
     inkscape:window-width="1920"
     inkscape:window-height="1051"
     inkscape:window-x="-9"
     inkscape:window-y="-9"
     inkscape:window-maximized="1"
     inkscape:current-layer="svg17" />
  <g
     id="SVGRepo_bgCarrier"
     stroke-width="0" />
  <g
     id="SVGRepo_tracerCarrier"
     stroke-linecap="round"
     stroke-linejoin="round" />
  <path
     id="path1320"
     style="fill:#000000;stroke:none;stroke-width:2.34516"
     d="M 621.84961 69.185547 L 120.57227 69.339844 C 90.70204 70.985173 91.445619 70.163434 71.455078 93.574219 C 58.932255 108.23966 60.912879 129.31129 60.941406 147.19531 C 61.017642 195.10228 69.215747 244.53425 79.214844 290.74219 C 105.87282 490.30849 252.08358 691.5914 425.53125 718.34961 C 490.07079 726.92015 559.27214 729.56941 624.18555 721.74805 C 647.24606 718.96875 667.42208 717.98515 684.59766 698.95117 C 738.4057 675.10868 746.34389 104.34025 706.83594 85.921875 C 674.21514 65.02918 648.3898 71.307941 621.84961 69.185547 z M 558.4707 165.85742 C 576.23226 167.2778 593.51488 163.07463 615.3457 177.05664 C 641.78575 189.38281 636.47496 571.36027 600.46484 587.31641 C 588.97044 600.05452 575.468 600.71203 560.03516 602.57227 C 516.59304 607.80667 470.27983 606.0345 427.08789 600.29883 C 311.01115 582.39139 213.16263 447.68705 195.32227 314.13086 C 188.63055 283.20702 183.14262 250.12533 183.0918 218.06445 C 183.07271 206.09589 181.74823 191.99427 190.12891 182.17969 C 203.50722 166.51244 203.00989 167.06205 223 165.96094 L 558.4707 165.85742 z "
     transform="matrix(0.02125,0,0,0.02125,0,-0.5)" />
  <text
     xml:space="preserve"
     transform="matrix(0.16434235,0,0,0.16434235,-33.359881,-34.435737)"
     id="text12863"
     style="font-style:normal;font-weight:normal;font-size:40px;line-height:1.25;font-family:sans-serif;white-space:pre;shape-inside:url(#rect12865);fill:#008000;fill-opacity:1;stroke:none;stroke-width:0.129303"><tspan
       x="232.14453"
       y="263.50688"
       id="tspan17574"><tspan
         style="font-family:'Arial Rounded MT Bold';-inkscape-font-specification:'Arial Rounded MT Bold, '"
         id="tspan17572">RT</tspan></tspan></text>
  <path
     style="fill:#a0a0a0;stroke:none;stroke-width:1"
     d="m 267.09443,444.11594 c -8.50287,-1.65853 -13.91984,-6.97492 -16.45348,-16.148 l -0.86117,-3.11786 -0.0995,-90.90188 c -0.0745,-68.03119 -0.005,-91.62794 0.27548,-93.78766 1.11802,-8.60362 4.79436,-14.46912 10.92713,-17.43391 3.74581,-1.81085 7.15398,-2.55492 13.58629,-2.96615 7.16398,-0.45802 85.66807,-0.17512 91.86381,0.33104 14.93553,1.22014 21.8756,2.83567 30.91594,7.19671 17.09782,8.24796 28.0672,23.2231 31.50699,43.01261 0.88045,5.06529 0.78749,16.64393 -0.17731,22.0862 -1.83501,10.35089 -5.32771,18.1789 -11.30766,25.34322 -8.44923,10.12267 -22.2456,17.7096 -40.27662,22.14903 -1.98397,0.48847 -3.60378,0.97706 -3.59957,1.08574 0.004,0.10868 1.26673,0.94114 2.80561,1.8499 9.70164,5.7292 20.86037,16.95985 31.33214,31.5341 10.57103,14.71241 21.55675,35.61919 24.99673,47.57099 1.81042,6.29008 0.3805,11.53733 -4.47109,16.40707 -2.48366,2.49297 -5.99471,4.46226 -9.78122,5.48615 -2.89636,0.78318 -9.63433,0.7805 -12.48213,-0.005 -6.13184,-1.69127 -11.74414,-6.44367 -16.83214,-14.25319 -1.45615,-2.23504 -8.85208,-14.38036 -16.43538,-26.98959 -15.27737,-25.40264 -17.37849,-28.74147 -21.89307,-34.78961 -8.43301,-11.2976 -15.28302,-16.92985 -23.74527,-19.52394 -5.46066,-1.67396 -7.29972,-1.85619 -20.43576,-2.02497 l -12.26454,-0.15757 -0.009,35.38232 c -0.005,19.46028 -0.14393,37.2216 -0.30841,39.46962 -0.37861,5.17462 -1.27757,8.97046 -2.93689,12.401 -2.41063,4.98383 -7.37477,8.99969 -12.93775,10.46628 -2.6678,0.70333 -8.13288,0.86741 -10.90181,0.32732 z m 83.20649,-130.64747 c 11.33353,-1.54587 17.34368,-3.36178 22.70764,-6.86089 5.5726,-3.63521 8.86315,-8.36159 10.5437,-15.14439 0.87164,-3.518 0.77871,-12.92253 -0.16119,-16.31366 -2.72213,-9.82131 -10.49496,-17.40797 -20.41273,-19.92381 -6.91341,-1.75374 -9.17238,-1.86608 -40.17244,-1.99784 l -28.61726,-0.12163 v 30.50099 30.50098 l 26.69341,-0.134 c 17.72644,-0.089 27.60896,-0.25889 29.41887,-0.50575 z"
     id="path17329"
     transform="matrix(0.02125,0,0,0.02125,0,-0.5)" />
  <path
     style="fill:#000000;stroke:none;stroke-width:1"
     d="m 524.72993,444.08893 c -4.64095,-0.93601 -8.25262,-2.92751 -11.32242,-6.24326 -2.15945,-2.33246 -3.44658,-4.54263 -4.53351,-7.78467 -1.85508,-5.53317 -1.77541,-1.44423 -1.77747,-91.22302 l -0.002,-82.48504 h -25.73989 c -15.39971,0 -26.77673,-0.13001 -28.32088,-0.32363 -5.96607,-0.74808 -9.55045,-2.28607 -12.63267,-5.42042 -3.40482,-3.4624 -4.80963,-7.15251 -4.80963,-12.63377 0,-5.56997 1.31686,-8.99289 4.77449,-12.41037 3.7995,-3.75538 7.74208,-5.2344 15.42593,-5.78687 3.0927,-0.22236 28.9108,-0.29691 77.1143,-0.22265 l 72.46499,0.11163 2.95634,0.68076 c 7.58858,1.74744 12.65033,6.25315 14.34831,12.77213 0.63368,2.43286 0.63368,7.48037 0,9.91324 -1.52669,5.86133 -5.86287,10.13582 -12.17438,12.00117 -4.08934,1.20859 -6.88149,1.31878 -33.41847,1.31878 h -25.7399 l -0.002,82.64536 c -0.002,88.95229 0.0551,85.74018 -1.61634,90.82172 -0.37705,1.1463 -1.17777,3.02516 -1.77937,4.17525 -4.12009,7.8764 -13.65489,12.02192 -23.21565,10.09366 z"
     id="path17368"
     transform="matrix(0.02125,0,0,0.02125,0,-0.5)" />
  <path
     style="fill:#a0a0a0;stroke:none;stroke-width:1"
     d="m 265.77104,443.61443 c -7.65184,-2.00613 -12.48552,-7.13695 -15.01862,-15.94185 l -0.81879,-2.84608 0.0834,-92.97427 0.0834,-92.97426 0.71957,-2.56513 c 2.90585,-10.35881 9.14995,-15.03511 21.64446,-16.20985 2.87977,-0.27076 16.09049,-0.32942 48.5122,-0.21541 38.31196,0.13473 45.20617,0.2298 49.20404,0.67852 13.58021,1.52424 19.40416,3.0955 28.21646,7.6126 5.78218,2.96388 9.66882,5.77889 14.10823,10.21831 7.49131,7.49131 12.44622,16.48011 15.07079,27.34026 1.21102,5.01102 1.59673,8.50808 1.59967,14.50346 0.005,11.15635 -1.60389,19.02626 -5.57349,27.25454 -7.3488,15.23277 -21.99642,25.59661 -44.8815,31.75564 -5.40755,1.45533 -5.33374,1.43162 -5.33374,1.71339 0,0.13168 1.98397,1.55122 4.40882,3.15453 11.42119,7.5517 22.75687,19.83015 33.83686,36.65102 8.98781,13.64467 17.81485,31.19308 20.61375,40.98069 0.72269,2.52722 0.83222,3.42485 0.70425,5.77155 -0.18884,3.46316 -0.98335,5.58485 -3.1881,8.51366 -2.47795,3.29174 -6.60568,6.10626 -10.84448,7.3944 -2.36208,0.71781 -8.21199,0.99447 -11.18527,0.52898 -5.82476,-0.91191 -11.44874,-4.83204 -16.37447,-11.41365 -2.35512,-3.14684 -4.35604,-6.37202 -18.9976,-30.62127 -13.20961,-21.87765 -14.61569,-24.15274 -18.1189,-29.31691 -4.166,-6.14121 -8.35183,-11.26036 -12.48087,-15.26375 -4.88608,-4.7374 -8.67668,-7.14297 -14.19936,-9.0111 -5.04187,-1.70549 -6.91078,-1.90481 -20.54744,-2.1914 -6.96593,-0.1464 -12.72022,-0.21344 -12.78729,-0.14897 -0.0671,0.0645 -0.1793,16.46314 -0.2494,36.4415 -0.072,20.51598 -0.26665,37.81588 -0.44729,39.75164 -0.42233,4.52564 -1.2894,7.84028 -2.91729,11.15212 -2.53884,5.16513 -7.82701,9.22736 -13.57871,10.4308 -3.15769,0.66069 -8.4315,0.58872 -11.26328,-0.15371 z m 68.4978,-129.68438 c 14.9047,-0.13483 15.75074,-0.17497 20.35374,-0.9658 11.76283,-2.02094 17.98004,-4.7709 23.19267,-10.25845 1.7116,-1.80185 2.63532,-3.13883 3.71533,-5.37746 2.3568,-4.88511 2.58907,-6.13628 2.57704,-13.88119 l -0.0104,-6.73348 -1.06617,-3.12417 c -3.11837,-9.13768 -10.67516,-16.11817 -20.06474,-18.53453 -6.44347,-1.6582 -6.63199,-1.66539 -53.14634,-2.02837 l -15.63128,-0.12198 v 30.71086 30.71086 l 12.26454,-0.12781 c 6.7455,-0.0703 19.26254,-0.1911 27.81566,-0.26848 z"
     id="path17444"
     transform="matrix(0.02125,0,0,0.02125,0,-0.5)" />
  <path
     style="fill:#000000;stroke:none;stroke-width:1"
     d="m 265.72065,443.60163 c -7.04331,-1.84534 -11.84326,-6.59951 -14.56176,-14.42289 l -1.05847,-3.04609 v -93.78766 -93.78766 l 0.90014,-2.87384 c 3.09914,-9.89461 9.08341,-14.34402 20.89028,-15.53231 4.27199,-0.42995 74.42636,-0.45816 88.02932,-0.0354 13.36938,0.4155 21.77357,1.58781 29.33871,4.09249 4.58522,1.51808 12.65783,5.59263 16.51304,8.33474 3.90278,2.77596 9.81169,8.68492 12.58737,12.58747 4.33265,6.09161 8.02405,14.69996 9.73429,22.70038 1.50629,7.04633 1.39771,19.70134 -0.23394,27.26739 -4.79609,22.23966 -20.63306,36.48022 -49.08656,44.13851 -5.48222,1.47555 -5.38596,1.44448 -5.38596,1.7385 0,0.13771 1.5511,1.24412 3.4469,2.45868 17.17955,11.00633 35.1284,33.85209 48.8225,62.14257 3.42532,7.07634 5.29579,11.67133 6.59566,16.2029 0.7172,2.50029 0.82646,3.39837 0.69862,5.74268 -0.18884,3.46316 -0.98335,5.58485 -3.1881,8.51366 -2.81071,3.73378 -7.62909,6.73766 -12.45897,7.7672 -3.36108,0.71645 -9.61618,0.46384 -12.49374,-0.50455 -4.59671,-1.54695 -9.5116,-5.47315 -13.43612,-10.73329 -2.53091,-3.39224 -4.01255,-5.77116 -17.14444,-27.52715 -17.63477,-29.21604 -18.67435,-30.86157 -24.04709,-38.06368 -3.44213,-4.61413 -10.02179,-11.51535 -13.12376,-13.76515 -4.14998,-3.00988 -9.7383,-5.36788 -14.93526,-6.30196 -1.95375,-0.35115 -6.43104,-0.57559 -15.26933,-0.76542 -6.87776,-0.14772 -12.52764,-0.24629 -12.55529,-0.21904 -0.0276,0.0272 -0.14461,16.5706 -0.25992,36.763 -0.11605,20.32181 -0.35232,38.11837 -0.52919,39.86013 -0.43674,4.30083 -1.31425,7.57238 -2.89215,10.78262 -2.55611,5.20041 -7.79807,9.22926 -13.58311,10.43968 -3.18399,0.66619 -8.43011,0.58898 -11.31367,-0.16651 z m 66.3037,-129.67895 c 17.13223,-0.14333 17.96892,-0.17859 22.44491,-0.94591 6.07527,-1.04148 10.20909,-2.14117 13.68835,-3.6414 3.87679,-1.67163 6.21571,-3.27021 9.29038,-6.34963 2.15668,-2.16003 2.87366,-3.15196 4.06898,-5.62941 2.32388,-4.81652 2.58453,-6.18413 2.58982,-13.58854 0.005,-7.51029 -0.2594,-8.87433 -2.67625,-13.78759 -3.4106,-6.93346 -9.89591,-12.42223 -17.18172,-14.54155 -6.57265,-1.91188 -11.21656,-2.1761 -39.43891,-2.24395 -10.58117,-0.0254 -21.79962,-0.14081 -24.92988,-0.25637 l -5.69139,-0.21012 v 30.81349 30.81349 l 10.02005,-0.14181 c 5.51103,-0.078 18.02807,-0.20881 27.81566,-0.2907 z"
     id="path17483"
     transform="matrix(0.02125,0,0,0.02125,0,-0.5)" />
</svg>
