<?xml version="1.0" encoding="UTF-8" standalone="no"?>
<!-- Uploaded to: SVG Repo, www.svgrepo.com, Transformed by: SVG Repo Mixer Tools -->

<svg
   width="800px"
   height="800px"
   viewBox="0 -0.5 17 17"
   version="1.1"
   class="si-glyph si-glyph-button-arrow-up"
   fill="#000000"
   id="svg17"
   sodipodi:docname="button-select.svg"
   inkscape:version="1.1.2 (b8e25be833, 2022-02-05)"
   xmlns:inkscape="http://www.inkscape.org/namespaces/inkscape"
   xmlns:sodipodi="http://sodipodi.sourceforge.net/DTD/sodipodi-0.dtd"
   xmlns="http://www.w3.org/2000/svg"
   xmlns:svg="http://www.w3.org/2000/svg">
  <defs
     id="defs21">
    <rect
       x="268.53147"
       y="258.27506"
       width="277.0963"
       height="267.59407"
       id="rect3691" />
    <clipPath
       clipPathUnits="userSpaceOnUse"
       id="clipPath2119">
      <path
         id="path2121"
         style="fill:#ff0000;fill-opacity:1;fill-rule:nonzero;stroke:none;stroke-width:1.95665e-12"
         d="M 48.234375,26.210938 V 773.50586 H 797.31836 V 26.210938 Z M 483.40625,347.43945 c 3.45035,-0.0866 3.73459,3.77754 -0.30664,4.64063 -0.79106,0.16893 -1.59978,0.20886 -2.40039,0.3125 0.49436,0.0636 0.98825,0.12808 1.48242,0.19922 0.82541,0.66847 1.88129,-0.19983 2.75,0.0957 2.48847,0.84577 3.20285,1.70626 0.57227,4.74023 -0.0313,0.036 -0.20766,0.0845 -0.47071,0.13868 0.16886,1.10275 0.33436,1.33545 -0.16211,1.38281 1.2e-4,0.004 -1.2e-4,0.008 0,0.0117 0,0.0545 -0.10954,1e-5 -0.16601,0 -0.0206,-10e-6 -0.052,0 -0.0742,0 -0.13591,-2e-5 -0.28743,2e-5 -0.45313,0 h -0.62695 c 0.0843,0.75566 0.12719,1.3756 0.12891,1.89258 1.00206,-0.0142 2.00089,0.0305 2.99219,0.16992 0.89976,0.12659 2.39585,0.27292 2.45703,1.17968 0.20157,3.08106 -1.06694,4.48037 -2.89844,5.15235 0.29708,0.10269 0.58871,0.22004 0.87305,0.35547 0.83811,0.39901 2.10466,1.00668 2.00586,1.92968 -0.17708,1.68447 -0.74053,2.6854 -1.53711,3.32032 0.39318,0.0552 0.78532,0.11707 1.17578,0.1875 0.59435,0.1071 1.58112,0.002 1.71289,0.59179 0.33223,1.50156 -0.38013,3.05196 -0.56836,4.57813 -1.51624,0.33929 -1.96936,0.3613 -3.23242,0.85547 -0.16471,0.064 -0.29659,0.21791 -0.47071,0.23828 -2.76028,0.32171 -5.53555,0.47032 -8.3125,0.59375 0.50463,0.17247 1.11919,0.39582 1.1211,0.39648 0.7487,0.27789 1.78068,0.56019 2.02539,1.5 0.22517,0.8522 -0.0592,1.76171 -0.2461,2.63086 0.0177,0.13115 0.0231,0.26912 0.0371,0.40235 0.84568,0.14598 1.69077,0.29575 2.53711,0.4375 5.2144,0.87327 3.21432,-0.19487 6.36914,2.34179 -0.97694,1.32645 -1.50945,3.14459 -2.92968,3.97852 -0.22037,0.12948 -3.74646,0.22414 -5.89454,0.26172 0.002,0.27019 -0.006,0.54038 -0.002,0.81054 -0.10678,1.38836 -1.43185,2.84181 -2.34961,3.83399 1.78258,0.23367 3.56514,0.47067 5.33985,0.75586 1.3247,0.21294 3.11726,-0.23338 3.9375,0.82812 2.84334,3.67881 0.89282,4.63033 -1.50586,4.77735 -1.53432,0.094 -3.2498,-0.14017 -4.01368,-0.20117 -0.96028,2.44168 -2.43895,2.7907 -4.4414,2.64062 0.97755,0.47432 1.7345,1.01862 1.93945,1.60938 1.00272,2.89071 0.12698,3.99223 -1.38672,4.54492 1.10675,0.19271 7.71635,1.15517 7.93164,3.7539 0.35177,4.2325 -2.51959,4.49038 -5.14453,5.50586 -1.68094,0.47181 -2.35673,0.73209 -4.01367,0.95703 -0.31529,0.0428 -0.63784,0.0974 -0.95312,0.0391 -0.49883,-0.0928 -1.15631,-0.0651 -1.44336,-0.48438 -0.56847,-0.83379 -1.10445,-1.92018 -0.86914,-2.90234 0.11937,-0.50133 0.46702,-0.87972 0.87304,-1.22852 -0.82901,-0.0628 -1.65697,-0.12533 -2.48633,-0.17969 -0.54767,-0.0767 -1.13025,-0.12206 -1.72461,-0.16406 -0.28255,0.28328 -0.58221,0.54403 -0.92578,0.74414 -1.78924,1.04221 -6.2769,2.91965 -8.64453,3.28907 -0.82928,0.1292 -1.67302,0.12915 -2.51172,0.17382 -0.0529,0.63629 -0.39273,0.40421 -2.09375,0.14453 -0.20236,0.009 -0.40335,0.0313 -0.60547,0.043 -1.32924,0.21926 -1.73915,0.39288 -1.82617,-0.0371 -2.05097,-0.0167 -3.77874,-0.0298 -5.42773,-2.10742 -0.11577,-0.14584 -0.21681,-0.2997 -0.30664,-0.46094 -0.92544,0.52583 -1.90178,0.94913 -2.93555,1.10938 -1.3941,0.21594 -2.81576,0.20425 -4.23242,0.0801 -1.40801,0.68532 -2.86194,1.24977 -4.39258,1.47851 -2.67598,0.39972 -5.38292,-0.55735 -8.07422,-0.83593 -0.64024,-0.43569 -0.70655,-0.53228 -1.20703,-0.84961 -0.88255,-0.0421 -1.76481,-0.0867 -2.64648,-0.10743 -1.09699,0.41878 -1.11381,0.48957 -2.4668,0.64063 -1.21901,0.13616 -2.56412,-0.0837 -3.80078,0.002 -2.05164,-0.003 -4.10463,-0.0127 -6.15625,0.006 -1.16371,0.008 -2.32711,0.0171 -3.49024,0.002 0.004,0.002 0.004,0.002 0.008,0.004 h 0.002 c 4.04373,2.02188 2.00075,6.10782 -2.04297,4.08594 -3.06622,-1.53308 -2.45985,-1.03874 -5.66602,-3.80664 -0.71278,-0.61539 -1.49296,-1.19854 -2.00585,-1.98828 -0.37008,-0.56986 -0.67213,-1.18134 -0.9375,-1.81055 0.0302,1.01386 0.0634,2.02778 0.0508,3.04297 -0.0293,1.81155 -0.0111,3.62383 -0.01,5.43555 0,0.64889 8.4e-4,0.5287 0,1.25195 -1.7e-4,0.14776 0.0885,0.55811 -0.002,0.44141 -0.48923,-0.63233 -0.58021,-1.60232 -1.24219,-2.05079 -0.48014,-0.32535 -1.16042,0.0211 -1.74023,0.0312 -4.52031,0.0803 6.79026,3.32972 2.31054,3.93946 -0.73204,0.0998 -1.533,0.62636 -2.19531,0.29883 -1.99652,-0.98697 -1.69428,-2.34197 -1.69726,-3.90625 -0.002,-1.83287 -0.0229,-3.66535 0.008,-5.49805 0.0259,-2.01733 -0.12882,-4.02899 -0.0918,-6.04688 0.0499,-0.69713 0.0751,-1.39692 0.15039,-2.09179 0.0137,-0.12471 0.0752,-0.23985 0.11328,-0.35938 0.0532,-0.4951 0.10698,-0.98927 0.16016,-1.48437 0.19776,-4.03095 -0.57255,-8.06336 -1.00977,-12.04688 -0.23744,-2.16454 0.71739,-3.29629 1.79493,-3.51172 0.0899,-0.31075 0.15041,-0.57493 0.27539,-0.94726 0.0986,-0.29384 1.13203,-1.18494 1.41015,-1.44141 0.85558,-0.53336 1.50838,-1.08401 2.75977,-0.65625 2.31407,0.79111 1.46929,1.30222 2.19531,2.53125 0.007,0.0111 0.0128,0.0222 0.0195,0.0332 0.0781,-0.0214 0.16023,-0.0426 0.25,-0.0645 0.38645,-0.0934 0.79713,0.045 1.19336,0.0117 0.18268,-0.0151 0.34758,-0.12023 0.52734,-0.15625 1.17582,-0.23567 2.37667,-0.32254 3.56641,-0.47266 1.58994,-0.22553 3.20258,-0.39547 4.81055,-0.31445 0.56738,-0.48348 1.02059,-0.85408 1.25,-1.04492 1.13637,-0.94532 2.20291,-2.08568 3.58593,-2.60742 1.43064,-0.53977 3.04139,-0.31151 4.5625,-0.4668 0.98933,0.55859 2.38273,0.70246 2.96876,1.67578 0.49432,0.82103 0.78953,1.68981 0.9375,2.58399 0.92119,-8.7e-4 1.84245,-0.004 2.76367,-0.004 1.57967,-0.20085 3.00404,0.65725 4.46484,1.06055 0.78838,0.21758 1.66383,0.0424 2.45117,-0.0254 3.24293,-0.3233 6.51417,-0.14697 9.76758,-0.10743 1.39172,-0.015 2.78197,-0.0181 4.17383,-0.0156 0.67143,0.0695 1.36998,-0.0826 2.03906,0.002 0.1493,0.0187 0.29678,0.0502 0.44531,0.0742 -0.007,-0.14441 -0.009,-0.29116 -0.006,-0.44336 0.003,-1.55459 -0.006,-3.10943 -0.0156,-4.66406 -1.22828,-0.0953 -2.65529,-0.19429 -2.76758,-0.26953 -0.11734,-0.0787 -0.22515,-0.1666 -0.32422,-0.26172 -0.10213,-0.0128 -0.20452,-0.0261 -0.30664,-0.0391 0.005,-0.005 0.0105,-0.0109 0.0137,-0.0176 0.0274,-0.0582 0.0526,-0.11858 0.0762,-0.17969 -0.86955,-1.07694 -0.91927,-2.85823 -1.0625,-4.2793 -0.057,-0.56566 1.0613,-0.18619 2.35742,0.375 0.0421,-0.027 0.0865,-0.0527 0.13281,-0.0762 0.60037,-0.30376 1.25736,-0.31663 1.92969,-0.25195 -0.0197,-0.40163 -0.0516,-0.80321 -0.10742,-1.20313 -0.009,-0.10055 -0.0767,-0.74717 -0.12696,-1.40429 -0.19489,-0.0159 -0.38896,-0.0425 -0.58398,-0.0566 -0.56072,-0.0407 -1.38027,0.46771 -1.7461,0.13476 -0.22182,0.0523 -0.39204,0.0328 -0.43164,-0.16797 -0.0553,-0.28107 -0.0877,-0.56687 -0.0996,-0.85547 -0.46766,-1.16438 -0.645,-2.48676 -0.39843,-3.68554 0.0976,-0.47421 0.77368,-0.3219 1.36718,-0.24414 0.53699,-0.49305 1.4338,-0.80852 2.68165,-0.75391 0.13704,-0.28098 0.38611,-0.58018 0.7832,-0.92383 0.19228,-0.87413 0.42018,-1.74954 0.74219,-2.57422 -0.26461,-0.2476 -0.52701,-0.49358 -0.79102,-0.72265 -0.21788,-0.1891 0.57723,0.0275 0.86523,0.041 0.0685,0.002 0.14769,0.004 0.2168,0.006 0.12391,-0.25909 0.26048,-0.51026 0.41016,-0.7539 -0.20071,-0.52537 -0.38743,-1.05458 -0.57032,-1.56055 -0.17507,-0.006 -0.33389,-0.0108 -0.51562,-0.0176 -1.50894,-0.0565 -3.01998,-0.11539 -4.52148,-0.27539 -0.39144,-0.0414 -1.36865,-0.0114 -1.13477,-0.32812 0.44694,-0.60455 0.83517,-1.12438 1.18555,-1.58008 -0.39597,-0.006 -0.61348,-0.009 -1.09571,-0.0156 -0.28983,-0.004 -0.89544,0.27489 -0.86914,-0.0137 0.061,-0.66898 0.0371,-1.48727 0.10352,-2.25195 -0.0402,-0.78849 0.0152,-1.63716 -0.0293,-2.3125 -0.0188,-0.28456 0.57225,0.01 0.85742,0.0137 0.14876,0.002 0.19796,0.002 0.33789,0.004 0.005,-0.002 0.0105,-0.004 0.0156,-0.006 1.53567,-0.61682 3.17582,-0.74057 4.85156,-0.70118 -0.0109,-0.28991 -0.0204,-0.58124 -0.0312,-0.87109 -0.007,-0.16157 -0.0104,-0.32298 -0.0156,-0.48437 -0.12402,0.13988 -0.22666,0.27623 -0.27735,0.375 -0.0844,0.16465 0.12705,0.70809 0.0234,0.55468 -0.10259,-0.15204 -0.109,-0.35033 -0.16406,-0.52539 -0.0844,-0.39799 -0.10235,-0.7358 -0.0664,-1.05273 -0.0357,-0.006 -0.0746,-0.0135 -0.10937,-0.0195 -0.67605,-0.11812 -1.65901,0.3312 -2.04493,-0.23633 -0.0464,-0.0683 -0.09,-0.13683 -0.13281,-0.20703 -0.20053,2.1e-4 -0.40103,0.002 -0.60156,0.002 -0.006,3.7e-4 -0.0115,-5.7e-4 -0.0176,0 -0.23284,0.022 -0.66374,0.19175 -0.60742,0 -0.82012,0.008 -2.01831,0.69722 -2.44922,0.004 v -0.002 c -0.0404,4.2e-4 -0.0807,0.002 -0.12109,0.002 -1.28731,0.0158 -2.26901,0.0679 -1.17383,-2.28711 -1.10173,-2.29446 -0.15985,-2.26357 1.12695,-2.2793 0.0423,-4.3e-4 0.0846,-0.002 0.12696,-0.002 0.38787,-0.6375 1.42362,-0.12948 2.23242,-0.0215 0.0853,-8.2e-4 0.17053,-0.003 0.25586,-0.004 -0.0102,-0.17967 0.22105,-0.14925 0.58789,-0.004 1.13316,-0.009 2.26733,-0.0137 3.40039,-0.008 -0.0142,-0.77554 -0.006,-1.12722 0.25976,-1.33399 -0.34957,-10e-4 -0.69914,-0.005 -1.04882,-0.004 -0.22033,2.9e-4 -0.44188,2.4e-4 -0.66211,0 -4.52106,-0.005 -4.51574,-4.57134 0.006,-4.56641 0.21449,2.3e-4 0.42994,2.7e-4 0.64453,0 0.6271,-10e-4 1.2537,-0.003 1.88086,0.004 1.6229,0.005 3.24455,-0.0272 4.86718,-0.0254 2.81682,0.0805 5.6811,0.3756 8.45704,-0.25391 0.74317,-0.0574 1.48319,-0.15999 2.22851,-0.17383 0.42664,-0.008 0.84951,0.0854 1.27539,0.10938 0.88085,0.0494 1.76413,0.0919 2.64649,0.11133 3.07967,0.0678 6.1946,0.0124 9.21484,-0.6543 0.37938,-0.0837 0.73225,-0.12663 1.05664,-0.13477 z m -26.46289,4.26172 c 0.0238,-0.002 0.0965,0.008 0.17187,0.0391 -0.16404,-0.0185 -0.19861,-0.0366 -0.17187,-0.0391 z m 1.4707,8.89453 c -0.0143,0.0214 -0.0276,0.0423 -0.043,0.0645 -0.008,0.0645 -0.0176,0.12901 -0.0273,0.19336 0.0326,-0.0966 0.0616,-0.17582 0.0898,-0.25391 -0.006,-10e-4 -0.013,-0.003 -0.0195,-0.004 z m 27.99805,4.97852 c 0.0489,0.15154 0.1072,0.2942 0.17773,0.42383 0.0642,0.12211 0.22043,-0.39646 0.084,-0.40625 -0.0874,-0.006 -0.17431,-0.0121 -0.26172,-0.0176 z m -9.27734,4.63672 c 0.44465,0.0743 0.89071,0.14988 1.33593,0.24414 0.0272,0.0164 0.0498,0.031 0.0762,0.0469 0.16217,0.0363 0.32282,0.0796 0.48437,0.11914 0.13552,-0.0195 0.27134,-0.0368 0.40625,-0.0625 -1.07675,-0.20722 -1.60588,-0.24868 -2.30273,-0.34765 z m 8.17578,1.70703 c 0.007,0.11482 0.0225,0.2262 0.0527,0.33008 0.0551,0.18964 0.76636,-0.0586 0.57813,-0.12305 -0.2095,-0.0724 -0.41952,-0.13988 -0.63086,-0.20703 z m -31.42578,0.50391 c -0.11864,0.25952 -0.0519,0.56302 0.3125,0.52929 0.0919,-0.008 0.184,-0.0207 0.27539,-0.0332 -0.19975,-0.15747 -0.39575,-0.32399 -0.58789,-0.49609 z m 22.46484,7.30859 c 0.0586,0.0191 0.11583,0.0422 0.16601,0.0781 0.0647,0.0474 -0.0448,-0.0234 -0.16601,-0.0781 z m -20.54102,3.6543 c 0.0163,0.33891 0.0207,0.67797 0.0215,1.01757 0.29003,0.02 0.60893,0.0435 0.86328,0.0606 -0.0579,-0.23883 0.008,-0.49186 -0.0137,-0.73633 -0.15701,-0.009 -0.31175,-0.0263 -0.44727,-0.0976 -0.14452,-0.0762 -0.2851,-0.15805 -0.42383,-0.24414 z m 21.64453,0.28515 c -0.0916,0.003 -0.18123,0.0188 -0.26953,0.043 -10e-4,0.0531 -0.002,0.10341 -0.004,0.15039 0.35381,-0.10683 0.59966,-0.17794 0.35351,-0.1914 -0.0272,-0.001 -0.0532,-0.003 -0.0801,-0.002 z m 8.63086,6.78516 c 5.2e-4,0.006 8.8e-4,0.0117 0.002,0.0176 0.73648,0.111 1.12076,0.16959 1.16015,0.17382 -0.0338,-0.007 -0.52856,-0.0873 -1.16211,-0.1914 z m -66.4746,2.1543 c -0.0988,0.005 -0.19655,0.0228 -0.29297,0.0586 -0.0543,0.0202 -0.11703,0.049 -0.18555,0.084 0.40048,-6.6e-4 0.80066,7.7e-4 1.20117,0.002 -0.24404,-0.0875 -0.4861,-0.15551 -0.72265,-0.14453 z m 54.10546,0.18945 c 0.26101,0.16917 0.66824,0.28939 0.67774,0.27734 -0.005,-0.004 -0.0241,-0.014 -0.0527,-0.0254 -0.23198,-0.0923 -0.43463,-0.17392 -0.625,-0.25195 z m -14.22461,1.96679 c -0.0245,0.0487 -0.0519,0.10458 -0.0762,0.1504 0.0268,-0.002 0.0518,-8.6e-4 0.0801,-0.006 5.9e-4,-0.0493 -0.004,-0.0959 -0.004,-0.14454 z m 20.55469,9.7754 c -0.002,0.062 -0.004,0.12379 -0.006,0.1875 -9e-5,0.004 8.8e-4,0.006 0.002,0.008 0.0154,-0.002 0.0808,-0.16887 0.0312,-0.18555 -0.009,-0.003 -0.0181,-0.007 -0.0274,-0.01 z m -78.50586,5.82812 c -0.0168,-0.002 -0.0301,0.0156 -0.0469,0.0137 10e-4,0.006 0.002,0.0117 0.004,0.0176 0.0146,-0.01 0.0282,-0.0217 0.043,-0.0312 z m 80.88672,6.88867 c 0.0971,0.27169 0.22286,0.58342 0.39063,0.93946 0.11764,0.25167 0.1553,-0.72413 -0.10352,-0.82813 -0.0952,-0.0384 -0.19106,-0.0754 -0.28711,-0.11133 z m -6.29101,0.0371 c -0.10814,0.0347 -0.0783,0.0619 0.24218,0.0176 -0.0807,-0.006 -0.16147,-0.0117 -0.24218,-0.0176 z" />
    </clipPath>
    <clipPath
       clipPathUnits="userSpaceOnUse"
       id="clipPath2129">
      <path
         id="path2131"
         style="fill:#ff0000;fill-opacity:1;fill-rule:nonzero;stroke:none;stroke-width:0.02125"
         d="m -4.4963672,-4.0352149 v -4.3027098 h -3.8678736 c 4.484e-4,0.016374 7.99e-4,0.032742 4.973e-4,0.049141 -0.00106,0.014814 -0.0016,0.029685 -0.0032,0.044451 -2.911e-4,0.00265 -0.0016,0.0051 -0.00241,0.00764 -0.00113,0.010521 -0.00227,0.021022 -0.0034,0.031543 -0.0042,0.085658 0.012167,0.1713464 0.021458,0.2559962 0.00516,0.047029 -0.01542,0.073821 -0.038972,0.077488 -0.00173,0.0058 -0.00274,0.010479 -0.00502,0.017266 -0.0021,0.00624 -0.024056,0.02518 -0.029966,0.03063 -0.018181,0.011334 -0.032053,0.023035 -0.058645,0.013945 -0.049174,-0.016811 -0.031222,-0.027672 -0.04665,-0.053789 -1.488e-4,-2.359e-4 -2.72e-4,-4.718e-4 -4.144e-4,-7.055e-4 -0.00166,4.547e-4 -0.0034,9.073e-4 -0.00531,0.00137 -0.00821,0.00198 -0.016939,-9.563e-4 -0.025359,-2.486e-4 -0.00388,3.208e-4 -0.00739,0.00255 -0.011206,0.00332 -0.024986,0.00501 -0.050504,0.00685 -0.075786,0.010044 -0.033786,0.00479 -0.068055,0.0084 -0.1022242,0.00668 -0.012057,0.010274 -0.021687,0.01815 -0.026562,0.022204 -0.024148,0.020088 -0.046811,0.044321 -0.076201,0.055408 -0.030401,0.01147 -0.064629,0.00662 -0.096953,0.00992 -0.021023,-0.01187 -0.050633,-0.014927 -0.063086,-0.03561 -0.010504,-0.017447 -0.016778,-0.035909 -0.019922,-0.05491 -0.019576,1.85e-5 -0.039152,8.5e-5 -0.058728,8.5e-5 -0.033568,0.00427 -0.063836,-0.013967 -0.094878,-0.022537 -0.016753,-0.00462 -0.035356,-9.01e-4 -0.052087,5.397e-4 -0.068912,0.00687 -0.1384261,0.00312 -0.2075611,0.00228 -0.029574,3.188e-4 -0.059117,3.847e-4 -0.088694,3.315e-4 -0.014268,-0.00148 -0.029112,0.00175 -0.04333,-4.25e-5 -0.00316,-3.973e-4 -0.00632,-9.031e-4 -0.00946,-0.00141 1.275e-4,0.00302 1.913e-4,0.00608 1.275e-4,0.00926 -6.37e-5,0.032814 1.275e-4,0.065633 3.315e-4,0.098447 0.031901,0.00233 0.056092,0.00457 0.058811,0.00639 0.00249,0.00167 0.00478,0.00354 0.00689,0.00556 0.00217,2.72e-4 0.00435,5.546e-4 0.00652,8.309e-4 0.00215,-0.00206 0.012033,0.00154 0.00909,0.00116 -0.00303,-3.889e-4 -0.00606,-7.842e-4 -0.00909,-0.00116 -1.063e-4,1.062e-4 -2.231e-4,2.316e-4 -2.911e-4,3.74e-4 -5.823e-4,0.00124 -0.00112,0.00252 -0.00162,0.00382 0.018478,0.022885 0.019535,0.060737 0.022578,0.090935 0.00121,0.01202 -0.022553,0.00396 -0.050095,-0.00797 -8.947e-4,5.737e-4 -0.00184,0.00112 -0.00282,0.00162 -0.012797,0.00647 -0.026631,0.00762 -0.040964,0.00623 4.25e-4,0.00824 0.00109,0.016486 0.00224,0.024695 1.913e-4,0.00215 0.00163,0.016041 0.0027,0.03009 0.00414,3.379e-4 0.00827,6.545e-4 0.01241,9.541e-4 0.011915,8.649e-4 0.029331,-0.00994 0.037105,-0.00286 0.00471,-0.00111 0.00833,-6.97e-4 0.00917,0.00357 0.00118,0.00597 0.00186,0.012046 0.00212,0.018179 0.00994,0.024743 0.013697,0.052844 0.00847,0.078318 -0.00203,0.00985 -0.016296,0.00655 -0.028721,0.00486 -0.011292,0.010585 -0.030285,0.017405 -0.056777,0.016352 -0.00292,0.00595 -0.00877,0.012355 -0.017183,0.019631 -0.00409,0.018575 -0.00893,0.037178 -0.015772,0.054702 0.00562,0.00526 0.011199,0.01049 0.016809,0.015356 0.00463,0.00402 -0.012266,-5.844e-4 -0.018386,-8.712e-4 -0.00146,-4.25e-5 -0.00314,-8.5e-5 -0.00461,-1.275e-4 -0.00263,0.00551 -0.00554,0.010843 -0.00872,0.01602 0.00427,0.011164 0.00823,0.02241 0.012119,0.033162 0.00372,1.275e-4 0.0071,2.295e-4 0.010957,3.74e-4 0.032065,0.0012 0.064176,0.00245 0.096081,0.00585 0.00832,8.797e-4 0.029084,2.486e-4 0.024114,0.00697 -0.0095,0.012847 -0.017747,0.023893 -0.025193,0.033577 0.00841,1.275e-4 0.013037,1.913e-4 0.023284,3.315e-4 0.00616,8.5e-5 0.019028,-0.00584 0.018469,2.911e-4 -0.0013,0.014216 -7.883e-4,0.031605 -0.0022,0.047854 8.543e-4,0.016755 -3.23e-4,0.03479 6.227e-4,0.049141 3.995e-4,0.00605 -0.01216,-2.125e-4 -0.01822,-2.911e-4 -0.00316,-4.25e-5 -0.00421,-4.25e-5 -0.00718,-8.5e-5 -1.062e-4,4.25e-5 -2.231e-4,8.5e-5 -3.315e-4,1.275e-4 -0.032633,0.013107 -0.067486,0.015737 -0.1030956,0.0149 2.316e-4,0.00616 4.335e-4,0.012351 6.63e-4,0.018511 1.487e-4,0.00341 2.635e-4,0.00681 3.74e-4,0.01021 0.00261,-0.00295 0.00478,-0.0058 0.00585,-0.00789 0.00179,-0.0035 -0.0027,-0.015047 -4.972e-4,-0.011787 0.00218,0.00323 0.00232,0.00744 0.00349,0.011165 0.00179,0.00846 0.00217,0.015636 0.00141,0.022371 7.587e-4,1.275e-4 0.00159,2.869e-4 0.00232,4.144e-4 0.014366,0.00251 0.035255,-0.00704 0.043455,0.00502 9.86e-4,0.00145 0.00191,0.00291 0.00282,0.0044 0.00426,-4.2e-6 0.00852,-4.25e-5 0.012783,-4.25e-5 1.275e-4,-7.9e-6 2.443e-4,1.21e-5 3.74e-4,0 0.00495,-4.675e-4 0.014105,-0.00407 0.012908,0 0.017428,-1.7e-4 0.042889,-0.014816 0.052046,-8.5e-5 v 4.25e-5 c 8.585e-4,-9.1e-6 0.00171,-4.25e-5 0.00257,-4.25e-5 0.027355,-3.357e-4 0.048217,-0.00144 0.024944,0.048601 0.023412,0.048757 0.0034,0.048101 -0.023948,0.048435 -8.988e-4,9.2e-6 -0.0018,4.25e-5 -0.0027,4.25e-5 -0.00824,0.013547 -0.030252,0.00275 -0.047439,4.569e-4 -0.00181,1.74e-5 -0.00362,6.37e-5 -0.00544,8.5e-5 2.167e-4,0.00382 -0.0047,0.00318 -0.012493,8.5e-5 -0.02408,1.912e-4 -0.048181,2.911e-4 -0.072258,1.7e-4 3.039e-4,0.016609 1.063e-4,0.024052 -0.00569,0.02843 0.00748,2.12e-5 0.014968,2.12e-5 0.022454,0 0.00468,-6e-6 0.00939,-5.1e-6 0.01407,0 0.096073,1.062e-4 0.09596,0.097141 -1.275e-4,0.097036 -0.00456,-4.9e-6 -0.00914,-5.8e-6 -0.013696,0 -0.013326,2.12e-5 -0.026641,6.37e-5 -0.039968,-8.5e-5 -0.034487,-1.063e-4 -0.068947,5.78e-4 -0.1034276,5.397e-4 -0.059857,-0.00171 -0.1207236,-0.00794 -0.1797121,0.00544 -0.015793,0.00122 -0.031518,0.00336 -0.047356,0.00365 -0.00907,1.7e-4 -0.018052,-0.00177 -0.027102,-0.00228 -0.018718,-0.00105 -0.037487,-0.00199 -0.056238,-0.00241 -0.02802,-6.162e-4 -0.05617,-6.587e-4 -0.08425,4.973e-4 v 2.864143 z m -5.2136792,-2.938435 c 5.695e-4,-4.25e-5 -1.7e-4,-4.377e-4 -0.00365,-8.308e-4 0.0016,6.608e-4 0.00315,8.733e-4 0.00365,8.308e-4 z m -0.031252,-0.1889673 c 3.103e-4,-4.654e-4 5.802e-4,-9.329e-4 9.138e-4,-0.00141 1.7e-4,-0.00137 3.74e-4,-0.00274 5.801e-4,-0.00411 -6.97e-4,0.00207 -0.00131,0.00377 -0.00191,0.00544 1.487e-4,2.13e-5 2.762e-4,6.38e-5 4.143e-4,8.5e-5 z m -0.3733696,-0.1999659 c -0.0079,-0.00153 -0.01575,-0.00295 -0.0237,-0.00427 v 0.00125 c 0.0086,0.0013 0.01631,0.00227 0.0237,0.00303 z m 0.469617,-0.051382 c 0.00252,-0.00551 0.0011,-0.011964 -0.00664,-0.011247 -0.00195,1.7e-4 -0.00391,4.399e-4 -0.00585,7.055e-4 0.00424,0.00335 0.00841,0.00688 0.012493,0.010542 z m -0.477378,-0.1553075 c -0.0025,-0.00116 -0.0049,-0.00267 -0.0035,-0.00166 10e-4,7.629e-4 0.0023,0.00125 0.0035,0.00166 z m 0.4364969,-0.077654 c -3.464e-4,-0.0072 -4.399e-4,-0.014407 -4.569e-4,-0.021623 -0.00616,-4.25e-4 -0.01294,-9.223e-4 -0.018345,-0.00129 0.00126,0.0052 0.00203,0.010485 0.00249,0.015813 0.00256,2.635e-4 0.00506,7.246e-4 0.0073,0.00191 0.00307,0.00162 0.00606,0.00336 0.00901,0.00519 z m 0.7692332,-0.1960229 c 0.0021,-1.063e-4 0.00418,-4.718e-4 0.00623,-0.00125 0.00115,-4.292e-4 0.00249,-0.00105 0.00394,-0.00178 -0.00851,1.41e-5 -0.017014,-1.61e-5 -0.025525,-4.25e-5 0.00519,0.00186 0.010331,0.0033 0.015356,0.00307 z m -1.1497411,-0.00403 c -0.0055,-0.00359 -0.0142,-0.00615 -0.0144,-0.00589 1.06e-4,8.5e-5 5.71e-4,2.975e-4 0.0011,5.397e-4 0.0049,0.00196 0.0092,0.0037 0.01328,0.00535 z m 0.3022314,-0.042168 c 4.845e-4,-9.69e-4 9.753e-4,-0.00191 0.00145,-0.00282 -5.037e-4,4.25e-5 -9.712e-4,4.25e-5 -0.00149,1.275e-4 -1.11e-5,9.201e-4 4.25e-5,0.00179 4.25e-5,0.0027 z m 1.2325,-0.3314917 c -2.13e-5,-1.275e-4 -4.25e-5,-2.486e-4 -8.5e-5,-3.74e-4 -1.488e-4,1.062e-4 -2.997e-4,2.295e-4 -4.569e-4,3.315e-4 1.7e-4,1.87e-5 3.612e-4,2.12e-5 5.397e-4,4.25e-5 z" />
    </clipPath>
    <clipPath
       clipPathUnits="userSpaceOnUse"
       id="clipPath2139">
      <path
         id="path2141"
         style="fill:#ff0000;fill-opacity:1;fill-rule:nonzero;stroke:none;stroke-width:0.02125"
         d="m -7.856731,-6.379397 v -4.30271 h -5.641958 v 4.30271 z m -2.419055,-0.5036499 h -4.3e-5 -8.5e-5 c -0.06998,-8.287e-4 -0.07441,-0.080612 0.01004,-0.098655 0.01447,-0.00309 0.02899,-0.00559 0.04362,-0.00764 -0.0081,-0.00108 -0.01606,-0.00208 -0.02411,-0.00324 -0.01754,-0.014205 -0.03998,0.00425 -0.05844,-0.00203 -0.05288,-0.017973 -0.06806,-0.036258 -0.01216,-0.1007299 6.65e-4,-7.65e-4 0.0044,-0.0018 0.01,-0.00295 -0.0036,-0.023433 -0.0071,-0.028378 0.0034,-0.029385 -2e-6,-8.5e-5 3e-6,-1.7e-4 0,-2.487e-4 0,-0.00116 0.0023,-2e-7 0.0035,0 4.38e-4,9e-7 0.0011,0 0.0016,0 0.0029,9e-7 0.0061,-4e-7 0.0096,0 h 0.01332 c -0.0018,-0.016058 -0.0027,-0.029231 -0.0027,-0.040217 -0.02129,3.018e-4 -0.04248,-6.481e-4 -0.06354,-0.00361 -0.01912,-0.00269 -0.05091,-0.0058 -0.05221,-0.025068 -0.0043,-0.065473 0.02267,-0.095208 0.06159,-0.1094874 -0.0063,-0.00218 -0.01251,-0.00468 -0.01855,-0.00755 -0.01781,-0.00848 -0.04472,-0.021392 -0.04263,-0.041006 0.0038,-0.035794 0.0157,-0.057065 0.03262,-0.070557 -0.0084,-0.00117 -0.01668,-0.00249 -0.02498,-0.00398 -0.01263,-0.00228 -0.0336,-4.25e-5 -0.0364,-0.012576 -0.0071,-0.031908 0.0081,-0.064854 0.01208,-0.097285 0.03222,-0.00721 0.04185,-0.00768 0.06869,-0.018179 0.0035,-0.00136 0.0063,-0.00463 0.01,-0.00506 0.05793,-0.00675 0.116087,-0.010821 0.174358,-0.013447 -0.01021,-0.00353 -0.02146,-0.00758 -0.0215,-0.0076 -0.01591,-0.00591 -0.03784,-0.011904 -0.04304,-0.031875 -0.0048,-0.018109 0.0013,-0.037436 0.0052,-0.055906 -3.81e-4,-0.00281 -4.89e-4,-0.00577 -7.89e-4,-0.00863 -0.01799,-0.00311 -0.03599,-0.0062 -0.054,-0.00921 -0.110806,-0.018557 -0.0683,0.00414 -0.135345,-0.049763 0.02076,-0.028187 0.03208,-0.066823 0.06226,-0.084544 0.0044,-0.00259 0.07854,-0.00599 0.125342,-0.00706 -4.2e-5,-0.00524 1.28e-4,-0.010487 4.3e-5,-0.01573 0.0023,-0.029381 0.03019,-0.060103 0.04968,-0.081182 -0.03784,-0.00496 -0.07563,-0.010298 -0.113306,-0.016352 -0.02815,-0.00453 -0.06624,0.00496 -0.08367,-0.017598 -0.06042,-0.078175 -0.01897,-0.098395 0.032,-0.1015187 0.0326,-0.002 0.06906,0.003 0.08529,0.00427 0.02041,-0.051886 0.05183,-0.059302 0.09438,-0.056113 -0.02077,-0.010079 -0.03686,-0.021646 -0.04121,-0.034199 -0.02131,-0.061428 -0.0027,-0.084833 0.02947,-0.09658 -0.02352,-0.0041 -0.163972,-0.024547 -0.168547,-0.07977 -0.0075,-0.089941 0.05354,-0.095421 0.109321,-0.1169995 0.03572,-0.010026 0.05008,-0.015557 0.08529,-0.020337 0.0067,-9.095e-4 0.01355,-0.00207 0.02025,-8.309e-4 0.0106,0.00197 0.02457,0.00138 0.03067,0.010293 0.01208,0.017718 0.02347,0.040804 0.01847,0.061675 -0.0025,0.010653 -0.0099,0.018694 -0.01855,0.026106 0.01762,0.00133 0.03523,0.00266 0.05283,0.00382 0.01164,0.00163 0.02402,0.00259 0.03665,0.00349 0.006,-0.00602 0.012371,-0.011561 0.019673,-0.015813 0.038021,-0.022147 0.1333841,-0.062043 0.1836962,-0.069893 0.017764,-0.00277 0.035657,-0.00416 0.053623,-0.0051 0.00146,-0.011591 0.00948,-0.00713 0.042998,-0.00191 0.005,-2.295e-4 0.00999,-4.951e-4 0.014983,-7.884e-4 0.026599,-0.00443 0.035585,-0.00774 0.037727,1.7e-4 0.044708,3.506e-4 0.079875,5.865e-4 0.1155469,0.04553 0.00246,0.0031 0.00461,0.00636 0.00652,0.0098 0.019666,-0.011174 0.040413,-0.020169 0.06238,-0.023574 0.029625,-0.00459 0.059835,-0.00434 0.089939,-0.0017 0.02992,-0.014563 0.060816,-0.026559 0.093342,-0.031418 0.056865,-0.00849 0.1143871,0.011846 0.1715772,0.017764 0.010084,0.00686 0.019051,0.012731 0.027476,0.018137 0.018186,8.692e-4 0.036368,0.00177 0.054536,0.0022 0.023311,-0.0089 0.023668,-0.010403 0.052419,-0.013613 0.025904,-0.00289 0.054488,0.00178 0.080767,-4.25e-5 0.043597,6.38e-5 0.087223,2.699e-4 0.1308203,-1.275e-4 0.02466,-1.7e-4 0.049313,-3.591e-4 0.07396,-4.25e-5 -4.25e-5,-1.7e-5 -4.25e-5,-2.12e-5 -8.5e-5,-4.25e-5 h -4.25e-5 c -0.085929,-0.042965 -0.042516,-0.1297918 0.043413,-0.086826 0.065157,0.032578 0.052272,0.022073 0.120403,0.080891 0.015147,0.013077 0.031725,0.025469 0.042625,0.042251 0.00782,0.012036 0.014222,0.02494 0.019839,0.038225 -6.397e-4,-0.021468 -0.00126,-0.042918 -9.967e-4,-0.064414 6.227e-4,-0.038495 2.359e-4,-0.077006 2.125e-4,-0.1155052 0,-0.013789 -1.78e-5,-0.011235 0,-0.026604 3.9e-6,-0.00314 -0.00188,-0.01186 4.25e-5,-0.00938 0.010396,0.013437 0.012329,0.034049 0.026397,0.043579 0.010203,0.00691 0.024659,-4.548e-4 0.03698,-6.63e-4 0.096057,-0.00171 -0.1442933,-0.070757 -0.049099,-0.083713 0.015556,-0.00212 0.032576,-0.01331 0.04665,-0.00635 0.042426,0.020973 0.036003,0.049767 0.036067,0.083008 4.25e-5,0.038949 4.866e-4,0.077889 -1.7e-4,0.1168333 -5.504e-4,0.042868 0.00274,0.085616 0.00195,0.1284962 -0.00106,0.014814 -0.0016,0.029687 -0.0032,0.044451 -2.912e-4,0.00265 -0.0016,0.0051 -0.00241,0.00764 -0.00113,0.010521 -0.00227,0.021022 -0.0034,0.031543 -0.0042,0.085658 0.012166,0.1713462 0.021458,0.255996 0.00516,0.047029 -0.01542,0.073821 -0.038972,0.077488 -0.00173,0.0058 -0.00274,0.010479 -0.00502,0.017266 -0.0021,0.00624 -0.024056,0.02518 -0.029966,0.03063 -0.018181,0.011334 -0.032053,0.023035 -0.058645,0.013945 -0.049174,-0.016811 -0.031222,-0.027672 -0.04665,-0.053789 -1.487e-4,-2.359e-4 -2.72e-4,-4.718e-4 -4.143e-4,-7.055e-4 -0.00166,4.547e-4 -0.0034,9.073e-4 -0.00531,0.00137 -0.00821,0.00198 -0.016939,-9.563e-4 -0.025359,-2.487e-4 -0.00388,3.209e-4 -0.00739,0.00255 -0.011206,0.00332 -0.024986,0.00501 -0.050504,0.00685 -0.075786,0.010044 -0.033786,0.00479 -0.068055,0.0084 -0.1022242,0.00668 -0.012057,0.010274 -0.021689,0.018151 -0.026562,0.022205 -0.024148,0.020088 -0.046811,0.044321 -0.076201,0.055408 -0.030401,0.01147 -0.06463,0.00662 -0.096953,0.00992 -0.021023,-0.01187 -0.050633,-0.014927 -0.063086,-0.03561 -0.010504,-0.017447 -0.016778,-0.035908 -0.019922,-0.054909 -0.019576,1.85e-5 -0.039152,8.5e-5 -0.058728,8.5e-5 -0.033568,0.00427 -0.063836,-0.013967 -0.094878,-0.022537 -0.016753,-0.00462 -0.035356,-9.01e-4 -0.052087,5.397e-4 -0.068912,0.00687 -0.1384261,0.00312 -0.207561,0.00228 -0.029574,3.188e-4 -0.059117,3.846e-4 -0.088694,3.315e-4 -0.014268,-0.00148 -0.029112,0.00175 -0.04333,-4.25e-5 -0.00313,-3.931e-4 -0.00626,-8.649e-4 -0.00938,-0.00137 1.275e-4,0.003 1.912e-4,0.00605 1.275e-4,0.00921 -6.38e-5,0.032814 1.275e-4,0.065633 3.315e-4,0.098447 0.031845,0.00233 0.056012,0.00453 0.058728,0.00635 0.00249,0.00167 0.00478,0.00354 0.00689,0.00556 0.00217,2.72e-4 0.00435,5.546e-4 0.00652,8.309e-4 0.00215,-0.00206 0.012033,0.00154 0.00909,0.00116 -0.00303,-3.889e-4 -0.00606,-7.842e-4 -0.00909,-0.00116 -1.062e-4,1.062e-4 -2.231e-4,2.316e-4 -2.911e-4,3.74e-4 -5.822e-4,0.00124 -0.00112,0.00252 -0.00162,0.00382 0.018478,0.022885 0.019535,0.060737 0.022578,0.090935 0.00121,0.01202 -0.022553,0.00396 -0.050095,-0.00797 -8.946e-4,5.737e-4 -0.00184,0.00112 -0.00282,0.00162 -0.012773,0.00646 -0.026577,0.00765 -0.040881,0.00627 4.25e-4,0.00824 0.00109,0.016485 0.00224,0.024695 1.913e-4,0.00215 0.00163,0.016041 0.0027,0.03009 0.00411,3.358e-4 0.00821,6.567e-4 0.012327,9.542e-4 0.011915,8.648e-4 0.029331,-0.00986 0.037105,-0.00278 0.00471,-0.00111 0.00833,-6.97e-4 0.00917,0.00357 0.00118,0.00597 0.00186,0.012046 0.00212,0.018179 0.00994,0.024743 0.013738,0.052844 0.00851,0.078318 -0.00202,0.00984 -0.016265,0.00651 -0.028679,0.00481 -0.011309,0.010573 -0.030316,0.017379 -0.056819,0.016311 -0.00291,0.00597 -0.00875,0.012415 -0.017182,0.019715 -0.00409,0.018575 -0.00893,0.037178 -0.015772,0.054702 0.00562,0.00526 0.011199,0.010487 0.016809,0.015356 0.00463,0.00402 -0.012266,-5.843e-4 -0.018386,-8.712e-4 -0.00146,-4.25e-5 -0.00318,-2.125e-4 -0.00465,-2.486e-4 -0.00263,0.00551 -0.00554,0.010845 -0.00872,0.01602 0.00427,0.011164 0.00823,0.02241 0.012119,0.033162 0.00372,1.275e-4 0.0071,2.295e-4 0.010957,3.74e-4 0.032065,0.0012 0.064177,0.00245 0.096082,0.00585 0.00832,8.797e-4 0.029084,2.486e-4 0.024114,0.00697 -0.0095,0.012847 -0.017747,0.023893 -0.025193,0.033577 0.00841,1.275e-4 0.013036,1.913e-4 0.023284,3.315e-4 0.00616,8.5e-5 0.019028,-0.00584 0.018469,2.911e-4 -0.0013,0.014216 -7.884e-4,0.031605 -0.0022,0.047854 8.542e-4,0.016755 -3.23e-4,0.03479 6.226e-4,0.049141 3.995e-4,0.00605 -0.01216,-2.125e-4 -0.01822,-2.911e-4 -0.00316,-4.25e-5 -0.00421,-4.25e-5 -0.00718,-8.5e-5 -1.063e-4,4.25e-5 -2.232e-4,8.5e-5 -3.315e-4,1.275e-4 -0.032633,0.013108 -0.067486,0.015737 -0.1030957,0.0149 2.316e-4,0.00616 4.335e-4,0.012351 6.63e-4,0.018511 1.488e-4,0.00346 2.614e-4,0.00692 3.74e-4,0.010376 0.00267,-0.003 0.00489,-0.00593 0.00598,-0.00805 0.00179,-0.0035 -0.00266,-0.015047 -4.569e-4,-0.011787 0.00218,0.00323 0.00232,0.00744 0.00349,0.011165 0.0018,0.00847 0.00218,0.015666 0.00141,0.022412 7.161e-4,1.275e-4 0.0015,2.507e-4 0.0022,3.74e-4 0.014366,0.00251 0.035255,-0.00704 0.043455,0.00502 9.86e-4,0.00145 0.00191,0.00291 0.00282,0.0044 0.00426,-4.3e-6 0.00852,-4.25e-5 0.012783,-4.25e-5 1.275e-4,-7.9e-6 2.444e-4,1.21e-5 3.74e-4,0 0.00495,-4.675e-4 0.014105,-0.00407 0.012908,0 0.017428,-1.7e-4 0.042889,-0.014816 0.052046,-8.5e-5 v 4.25e-5 c 8.585e-4,-9.2e-6 0.00167,-4.25e-5 0.00253,-4.25e-5 0.027355,-3.358e-4 0.048216,-0.00144 0.024944,0.048601 0.023412,0.048757 0.0034,0.048101 -0.023948,0.048435 -8.989e-4,9.1e-6 -0.0018,4.25e-5 -0.0027,4.25e-5 -0.00824,0.013547 -0.030252,0.00275 -0.047439,4.569e-4 -0.00181,1.74e-5 -0.00362,6.37e-5 -0.00544,8.5e-5 2.167e-4,0.00382 -0.0047,0.00318 -0.012493,8.5e-5 -0.02408,1.912e-4 -0.048181,3.782e-4 -0.072258,2.486e-4 3.039e-4,0.016558 1.275e-4,0.024046 -0.0056,0.02843 0.00746,2.13e-5 0.014913,2.13e-5 0.022371,0 0.00468,-5.9e-6 0.00939,-5.1e-6 0.01407,0 0.096073,1.063e-4 0.095959,0.097141 -1.275e-4,0.097036 -0.00456,-5.1e-6 -0.00914,-5.8e-6 -0.013697,0 -0.013326,2.12e-5 -0.026641,2.12e-5 -0.039968,-1.275e-4 -0.034487,-1.063e-4 -0.068947,6.183e-4 -0.1034275,5.801e-4 -0.059857,-0.00171 -0.1207234,-0.00798 -0.1797119,0.0054 -0.015793,0.00122 -0.031518,0.0034 -0.047356,0.00369 -0.00907,1.7e-4 -0.018052,-0.00181 -0.027102,-0.00232 -0.018718,-0.00105 -0.037487,-0.00195 -0.056237,-0.00237 -0.06544,-0.00144 -0.131636,-2.635e-4 -0.195816,0.013904 -0.0081,0.00178 -0.01556,0.00261 -0.02245,0.00278 -0.0011,2.04e-5 -0.0022,4.25e-5 -0.0033,4.25e-5 z m 0.5657396,-0.090603 c 5.695e-4,-4.25e-5 -1.7e-4,-4.377e-4 -0.00365,-8.308e-4 0.0016,6.608e-4 0.00315,8.733e-4 0.00365,8.308e-4 z m -0.031252,-0.1889673 c 3.103e-4,-4.654e-4 5.801e-4,-9.329e-4 9.138e-4,-0.00141 1.7e-4,-0.00137 3.74e-4,-0.00274 5.801e-4,-0.00411 -6.97e-4,0.00207 -0.00131,0.00377 -0.00191,0.00544 1.488e-4,2.13e-5 2.763e-4,6.38e-5 4.144e-4,8.5e-5 z m -0.5949586,-0.105835 c -10e-4,-0.00322 -0.0023,-0.00625 -0.0038,-0.00901 -0.0014,-0.00259 -0.0047,0.00842 -0.0018,0.00863 0.0019,1.275e-4 0.0037,2.572e-4 0.0056,3.741e-4 z m 0.221423,-0.094172 c -0.01738,-0.00339 -0.03506,-0.00582 -0.05267,-0.00955 -5.78e-4,-3.484e-4 -0.0011,-6.587e-4 -0.0016,-9.966e-4 -0.0035,-7.947e-4 -0.0071,-0.00176 -0.01058,-0.00261 -0.0028,4.059e-4 -0.0056,8.819e-4 -0.0083,0.00141 0.03283,0.00632 0.05416,0.00982 0.07313,0.011745 z m -0.198015,-0.040632 c -1.49e-4,-0.00244 -5e-4,-0.00481 -0.0011,-0.00701 -0.0012,-0.00403 -0.01632,0.00125 -0.01233,0.00261 0.0045,0.00154 0.0089,0.00297 0.01345,0.0044 z m 0.667798,-0.010708 c 0.00252,-0.00551 0.0011,-0.011964 -0.00664,-0.011247 -0.00195,1.7e-4 -0.00391,4.399e-4 -0.00585,7.055e-4 0.00424,0.00335 0.00841,0.00688 0.012493,0.010542 z m -0.477378,-0.1553075 c -0.0025,-0.00116 -0.0049,-0.00267 -0.0035,-0.00166 10e-4,7.629e-4 0.0023,0.00125 0.0035,0.00166 z m 0.4364969,-0.077654 c -3.464e-4,-0.0072 -4.399e-4,-0.014407 -4.569e-4,-0.021623 -0.00619,-4.271e-4 -0.012999,-9.223e-4 -0.018428,-0.00129 0.00126,0.00519 0.00203,0.010496 0.00249,0.015813 0.00259,2.614e-4 0.00512,7.119e-4 0.00739,0.00191 0.00307,0.00162 0.00606,0.00336 0.00901,0.00519 z m -0.4599469,-0.00606 c 0.0019,-6.37e-5 0.0039,-3.995e-4 0.0057,-9.137e-4 2.1e-5,-0.00113 4.3e-5,-0.0022 8.5e-5,-0.0032 -0.0075,0.00227 -0.01271,0.00378 -0.0075,0.00407 5.78e-4,2.13e-5 0.0011,6.38e-5 0.0017,4.25e-5 z m -0.183406,-0.1441846 c -1.1e-5,-1.275e-4 -1.8e-5,-2.487e-4 -4.2e-5,-3.74e-4 -0.01565,-0.00236 -0.02382,-0.0036 -0.02465,-0.00369 7.18e-4,1.487e-4 0.01123,0.00186 0.02469,0.00407 z m 1.4125861,-0.045779 c 0.0021,-1.063e-4 0.00418,-4.718e-4 0.00623,-0.00125 0.00115,-4.292e-4 0.00249,-0.00105 0.00394,-0.00178 -0.00851,1.41e-5 -0.017014,-1.61e-5 -0.025525,-4.25e-5 0.00519,0.00186 0.01033,0.0033 0.015356,0.00307 z m -1.1497411,-0.00403 c -0.0055,-0.00359 -0.0142,-0.00615 -0.0144,-0.00589 1.06e-4,8.5e-5 5.71e-4,2.975e-4 0.0011,5.397e-4 0.0049,0.00196 0.0092,0.0037 0.01328,0.00535 z m 0.3022314,-0.042168 c 4.845e-4,-9.69e-4 9.753e-4,-0.00191 0.00145,-0.00282 -5.037e-4,4.25e-5 -9.712e-4,4.25e-5 -0.00149,1.275e-4 -1.11e-5,9.201e-4 4.25e-5,0.00179 4.25e-5,0.0027 z M -10.200955,-8.096501 c 4.3e-5,-0.00132 8.5e-5,-0.00263 1.28e-4,-0.00398 2e-6,-8.5e-5 -1.8e-5,-1.275e-4 -4.3e-5,-1.701e-4 -3.27e-4,4.26e-5 -0.0017,0.00359 -6.63e-4,0.00394 1.92e-4,6.37e-5 3.81e-4,1.487e-4 5.83e-4,2.125e-4 z m 1.6692464,-0.124138 c -2.13e-5,-1.275e-4 -4.25e-5,-2.508e-4 -8.5e-5,-3.74e-4 -1.488e-4,1.062e-4 -2.997e-4,2.295e-4 -4.569e-4,3.315e-4 1.7e-4,1.87e-5 3.612e-4,2.12e-5 5.397e-4,4.25e-5 z m -1.7198394,-0.1460938 c -0.0021,-0.00577 -0.0047,-0.012398 -0.0083,-0.019963 -0.0025,-0.00535 -0.0033,0.015388 0.0022,0.017598 0.002,8.16e-4 0.0041,0.0016 0.0061,0.00237 z m 0.133684,-7.883e-4 c 0.0023,-7.374e-4 0.0017,-0.00132 -0.0051,-3.74e-4 0.0017,1.275e-4 0.0034,2.486e-4 0.0051,3.74e-4 z" />
    </clipPath>
  </defs>
  <sodipodi:namedview
     id="namedview19"
     pagecolor="#ffffff"
     bordercolor="#666666"
     borderopacity="1.0"
     inkscape:pageshadow="2"
     inkscape:pageopacity="0.0"
     inkscape:pagecheckerboard="0"
     showgrid="false"
     inkscape:zoom="1"
     inkscape:cx="378.5"
     inkscape:cy="452.5"
     inkscape:window-width="960"
     inkscape:window-height="1051"
     inkscape:window-x="-9"
     inkscape:window-y="-9"
     inkscape:window-maximized="0"
     inkscape:current-layer="svg17" />
  <g
     id="SVGRepo_bgCarrier"
     stroke-width="0" />
  <g
     id="SVGRepo_tracerCarrier"
     stroke-linecap="round"
     stroke-linejoin="round" />
  <g
     id="SVGRepo_iconCarrier">
    <title
       id="title4">1187</title>
    <defs
       id="defs6" />
    <g
       stroke="none"
       stroke-width="1"
       fill="none"
       fill-rule="evenodd"
       id="g14">
      <g
         transform="translate(1.000000, 0.000000)"
         fill="#000000"
         id="g12">
        <path
           id="path8"
           style="stroke-width:47.0588"
           class="si-glyph-fill"
           transform="matrix(0.02125,0,0,0.02125,-1,-0.5)"
           d="M 422.77734,26.210938 C 216.28323,26.210937 48.234375,193.83566 48.234375,399.90625 c 0,205.97647 168.001795,373.59961 374.542965,373.59961 206.54118,0 374.54102,-167.62314 374.54102,-373.59961 0,-206.07059 -167.99984,-373.695312 -374.54102,-373.695312 z m -0.70703,87.529292 c 157.50588,0 285.83594,128.47153 285.83594,286.25977 0,157.83529 -128.33006,286.25977 -285.83594,286.25977 -157.6,0 -285.78711,-128.42448 -285.78711,-286.25977 0,-157.78824 128.18711,-286.25977 285.78711,-286.25977 z"
           clip-path="url(#clipPath2119)" />
      </g>
    </g>
  </g>
  <path
     id="rect4779"
     style="font-variation-settings:normal;opacity:1;fill:#000000;fill-opacity:1;fill-rule:evenodd;stroke:#000000;stroke-width:0;stroke-linecap:round;stroke-linejoin:round;stroke-miterlimit:4;stroke-dasharray:none;stroke-dashoffset:0;stroke-opacity:1;stop-color:#000000;stop-opacity:1"
     d="m 10.109667,4.3408907 -5.3254693,0.0013 9.541e-4,4.4660305 1.010593,-2.364e-4 V 8.2184071 l -0.5658751,1.607e-4 -6.968e-4,-3.2752721 4.3633306,-0.00106 1.127e-4,0.5072316 h 0.5172728 z" />
  <path
     id="rect4779-2"
     style="font-variation-settings:normal;fill:#000000;fill-opacity:1;fill-rule:evenodd;stroke:#000000;stroke-width:0;stroke-linecap:round;stroke-linejoin:round;stroke-miterlimit:4;stroke-dasharray:none;stroke-dashoffset:0;stroke-opacity:1;stop-color:#000000"
     d="m 13.270904,11.73822 -0.0011,-4.4660405 -5.6016634,0.0013 0.001,4.4660405 z m -0.544272,-0.589413 -4.5896274,10e-4 -7.389e-4,-3.2752659 4.5896283,-0.00107 z" />
</svg>
