<?xml version="1.0" encoding="UTF-8" standalone="no"?>
<!-- Uploaded to: SVG Repo, www.svgrepo.com, Transformed by: SVG Repo Mixer Tools -->

<svg
   width="800px"
   height="800px"
   viewBox="0 -0.5 17 17"
   version="1.1"
   class="si-glyph si-glyph-button-arrow-up"
   fill="#000000"
   id="svg17"
   sodipodi:docname="button-B.svg"
   inkscape:version="1.1.2 (b8e25be833, 2022-02-05)"
   xmlns:inkscape="http://www.inkscape.org/namespaces/inkscape"
   xmlns:sodipodi="http://sodipodi.sourceforge.net/DTD/sodipodi-0.dtd"
   xmlns="http://www.w3.org/2000/svg"
   xmlns:svg="http://www.w3.org/2000/svg">
  <defs
     id="defs21">
    <rect
       x="268.53147"
       y="258.27506"
       width="277.0963"
       height="267.59407"
       id="rect3691" />
  </defs>
  <sodipodi:namedview
     id="namedview19"
     pagecolor="#ffffff"
     bordercolor="#666666"
     borderopacity="1.0"
     inkscape:pageshadow="2"
     inkscape:pageopacity="0.0"
     inkscape:pagecheckerboard="0"
     showgrid="false"
     inkscape:zoom="1.0948272"
     inkscape:cx="202.31503"
     inkscape:cy="437.05527"
     inkscape:window-width="1920"
     inkscape:window-height="1051"
     inkscape:window-x="-9"
     inkscape:window-y="-9"
     inkscape:window-maximized="1"
     inkscape:current-layer="svg17" />
  <g
     id="SVGRepo_bgCarrier"
     stroke-width="0" />
  <g
     id="SVGRepo_tracerCarrier"
     stroke-linecap="round"
     stroke-linejoin="round" />
  <g
     id="SVGRepo_iconCarrier">
    <title
       id="title4">1187</title>
    <defs
       id="defs6" />
    <g
       stroke="none"
       stroke-width="1"
       fill="none"
       fill-rule="evenodd"
       id="g14">
      <g
         transform="translate(1.000000, 0.000000)"
         fill="#000000"
         id="g12">
        <path
           id="path8"
           style="stroke-width:47.0588"
           class="si-glyph-fill"
           transform="matrix(0.02125,0,0,0.02125,-1,-0.5)"
           d="M 422.77734,26.210938 C 216.28323,26.210937 48.234375,193.83566 48.234375,399.90625 c 0,205.97647 168.001795,373.59961 374.542965,373.59961 206.54118,0 374.54102,-167.62314 374.54102,-373.59961 0,-206.07059 -167.99984,-373.695312 -374.54102,-373.695312 z m -0.70703,87.529292 c 157.50588,0 285.83594,128.47153 285.83594,286.25977 0,157.83529 -128.33006,286.25977 -285.83594,286.25977 -157.6,0 -285.78711,-128.42448 -285.78711,-286.25977 0,-157.78824 128.18711,-286.25977 285.78711,-286.25977 z" />
      </g>
    </g>
  </g>
  <path
     style="fill:#000000;stroke:none;stroke-width:0.0161873"
     d="M 6.6000343,12.753071 C 6.1326965,12.68527 5.8999566,12.435387 5.8253403,11.921315 5.8148547,11.849075 5.8089487,10.476062 5.8088028,8.0766241 5.8086007,4.9006938 5.8120951,4.3215696 5.8321844,4.1918004 5.8974058,3.7704948 6.0617318,3.5603635 6.4192046,3.4411513 l 0.1318617,-0.043974 1.7302063,-0.00505 c 1.7955964,-0.00524 2.0216424,5.915e-4 2.3831144,0.061485 0.772282,0.130099 1.34479,0.547355 1.681036,1.2251746 0.200316,0.4038046 0.28092,0.837919 0.238203,1.2828995 -0.054,0.562519 -0.244517,0.9865949 -0.603721,1.3438428 -0.168542,0.167624 -0.296128,0.2647239 -0.520682,0.3962666 -0.0927,0.054304 -0.162254,0.1025603 -0.154563,0.1072346 0.0077,0.00467 0.06366,0.026887 0.124366,0.049361 0.403921,0.1495234 0.821928,0.4281412 1.049349,0.6994326 0.3172,0.378388 0.466145,0.7578858 0.514193,1.3101154 0.07027,0.8075706 -0.211251,1.6081856 -0.75304,2.1416006 -0.415166,0.408749 -0.921276,0.617379 -1.738368,0.716595 -0.202447,0.02458 -0.43522,0.0281 -2.0403376,0.03089 -0.996501,0.0018 -1.8338557,-5e-5 -1.8607881,-0.004 z m 3.2928566,-1.425494 c 0.4601951,-0.05933 0.7728951,-0.18999 1.0000141,-0.417851 0.232483,-0.233243 0.336452,-0.528321 0.336452,-0.9549019 0,-0.7911171 -0.373974,-1.1789159 -1.2788341,-1.3261077 -0.142597,-0.023196 -0.33354,-0.028286 -1.2815862,-0.034166 l -1.1140244,-0.00691 v 1.3818966 1.381897 h 1.0764623 c 0.8585133,0 1.1139303,-0.0048 1.2615163,-0.02386 z M 9.8074449,7.2038733 C 10.259727,7.1237956 10.511454,6.9755898 10.686021,6.6866051 10.842021,6.4283568 10.893795,6.2189473 10.879994,5.9020408 10.869551,5.6622433 10.843509,5.5496019 10.759237,5.3797219 10.616992,5.09298 10.322254,4.9371832 9.7503159,4.8464115 9.5558405,4.8155463 9.455315,4.8121703 8.5465165,4.8059823 L 7.5549123,4.7992323 V 6.021698 7.2441637 l 1.0487335,-0.00642 c 0.8983606,-0.0055 1.0709681,-0.010349 1.2037991,-0.033872 z"
     id="path3888" />
</svg>
