<?xml version="1.0" encoding="UTF-8" standalone="no"?>
<!-- Uploaded to: SVG Repo, www.svgrepo.com, Transformed by: SVG Repo Mixer Tools -->

<svg
   width="800px"
   height="800px"
   viewBox="0 -0.5 17 17"
   version="1.1"
   class="si-glyph si-glyph-button-arrow-up"
   fill="#000000"
   id="svg17"
   sodipodi:docname="button-X.svg"
   inkscape:version="1.1.2 (b8e25be833, 2022-02-05)"
   xmlns:inkscape="http://www.inkscape.org/namespaces/inkscape"
   xmlns:sodipodi="http://sodipodi.sourceforge.net/DTD/sodipodi-0.dtd"
   xmlns="http://www.w3.org/2000/svg"
   xmlns:svg="http://www.w3.org/2000/svg">
  <defs
     id="defs21">
    <rect
       x="268.53147"
       y="258.27506"
       width="277.0963"
       height="267.59407"
       id="rect3691" />
  </defs>
  <sodipodi:namedview
     id="namedview19"
     pagecolor="#ffffff"
     bordercolor="#666666"
     borderopacity="1.0"
     inkscape:pageshadow="2"
     inkscape:pageopacity="0.0"
     inkscape:pagecheckerboard="0"
     showgrid="false"
     inkscape:zoom="1.0948272"
     inkscape:cx="434.31511"
     inkscape:cy="352.56705"
     inkscape:window-width="1920"
     inkscape:window-height="1051"
     inkscape:window-x="-9"
     inkscape:window-y="-9"
     inkscape:window-maximized="1"
     inkscape:current-layer="svg17" />
  <g
     id="SVGRepo_bgCarrier"
     stroke-width="0" />
  <g
     id="SVGRepo_tracerCarrier"
     stroke-linecap="round"
     stroke-linejoin="round" />
  <g
     id="SVGRepo_iconCarrier">
    <title
       id="title4">1187</title>
    <defs
       id="defs6" />
    <g
       stroke="none"
       stroke-width="1"
       fill="none"
       fill-rule="evenodd"
       id="g14">
      <g
         transform="translate(1.000000, 0.000000)"
         fill="#000000"
         id="g12">
        <path
           id="path8"
           style="stroke-width:47.0588"
           class="si-glyph-fill"
           transform="matrix(0.02125,0,0,0.02125,-1,-0.5)"
           d="M 422.77734,26.210938 C 216.28323,26.210937 48.234375,193.83566 48.234375,399.90625 c 0,205.97647 168.001795,373.59961 374.542965,373.59961 206.54118,0 374.54102,-167.62314 374.54102,-373.59961 0,-206.07059 -167.99984,-373.695312 -374.54102,-373.695312 z m -0.70703,87.529292 c 157.50588,0 285.83594,128.47153 285.83594,286.25977 0,157.83529 -128.33006,286.25977 -285.83594,286.25977 -157.6,0 -285.78711,-128.42448 -285.78711,-286.25977 0,-157.78824 128.18711,-286.25977 285.78711,-286.25977 z" />
      </g>
    </g>
  </g>
  <text
     xml:space="preserve"
     transform="matrix(0.07274022,0,0,0.05848191,-14.834267,-13.108777)"
     id="text3689"
     style="font-style:normal;font-variant:normal;font-weight:normal;font-stretch:normal;font-size:192px;line-height:1.25;font-family:'Arial Rounded MT Bold';-inkscape-font-specification:'Arial Rounded MT Bold, ';white-space:pre;shape-inside:url(#rect3691);fill:#00ff00;fill-opacity:1;stroke:none"><tspan
       x="268.53125"
       y="431.29777"
       id="tspan4590">X</tspan></text>
  <path
     style="fill:#000000;stroke:none;stroke-width:0.913386"
     d="m 261.22844,598.70947 c -5.66125,-1.12866 -12.55678,-3.99113 -17.03261,-7.07059 -13.48359,-9.27695 -15.59348,-28.94177 -5.11974,-47.71743 6.62767,-11.88102 7.96689,-13.51815 85.50551,-104.52635 19.66208,-23.07768 35.74694,-42.39579 35.74415,-42.92915 -0.003,-0.53336 -20.38694,-26.24771 -45.29808,-57.143 -47.86706,-59.36564 -55.49174,-69.34293 -61.46794,-80.43398 -4.38496,-8.13792 -6.9586,-18.28862 -6.09578,-24.04236 1.31339,-8.75831 11.03576,-18.41169 22.6452,-22.48451 7.23854,-2.53943 22.03795,-3.45188 30.16285,-1.85968 17.80761,3.48966 22.40265,8.31385 82.85749,86.98965 20.32589,26.45205 37.2746,47.89782 37.66381,47.65727 0.73739,-0.45573 72.2146,-87.53275 87.72547,-106.87144 18.21462,-22.70969 28.02457,-28.65578 47.2767,-28.65578 24.71665,0 42.77548,15.22724 39.42505,33.24327 -1.31629,7.07796 -6.0145,16.86083 -12.98496,27.03797 -3.07733,4.49304 -27.24,34.19851 -53.6948,66.01217 -26.45481,31.81366 -48.61048,58.47807 -49.23483,59.25424 -0.96302,1.19719 6.58194,10.95618 49.75026,64.34916 58.87714,72.82252 64.63589,80.28583 69.64772,90.26289 4.92164,9.79754 6.05401,16.14148 4.18405,23.44062 -2.52055,9.83867 -8.21971,16.25713 -19.05274,21.45743 -16.10381,7.73049 -37.98604,6.14173 -52.43077,-3.80673 -6.26224,-4.31299 -17.88325,-18.3225 -70.95793,-85.54225 -22.5099,-28.50907 -41.24376,-51.83467 -41.63081,-51.83467 -0.38704,0 -23.0541,27.41854 -50.37124,60.93008 -27.31714,33.51155 -51.35015,62.90133 -53.40669,65.31062 -5.17617,6.06404 -13.72057,12.73615 -19.48667,15.21666 -9.66366,4.15719 -24.28454,5.75713 -34.32267,3.75589 z"
     id="path4499"
     transform="matrix(0.02125,0,0,0.02125,0,-0.5)" />
</svg>
